<?xml version="1.0" encoding="utf-8" standalone="no"?>
<!DOCTYPE svg PUBLIC "-//W3C//DTD SVG 1.1//EN"
  "http://www.w3.org/Graphics/SVG/1.1/DTD/svg11.dtd">
<svg xmlns:xlink="http://www.w3.org/1999/xlink" width="352pt" height="512pt" viewBox="0 0 352 512" xmlns="http://www.w3.org/2000/svg" version="1.1">
 <metadata>
  <rdf:RDF xmlns:dc="http://purl.org/dc/elements/1.1/" xmlns:cc="http://creativecommons.org/ns#" xmlns:rdf="http://www.w3.org/1999/02/22-rdf-syntax-ns#">
   <cc:Work>
    <dc:type rdf:resource="http://purl.org/dc/dcmitype/StillImage"/>
    <dc:date>2023-07-18T16:23:03.993364</dc:date>
    <dc:format>image/svg+xml</dc:format>
    <dc:creator>
     <cc:Agent>
      <dc:title>Matplotlib v3.7.1, https://matplotlib.org/</dc:title>
     </cc:Agent>
    </dc:creator>
   </cc:Work>
  </rdf:RDF>
 </metadata>
 <defs>
  <style type="text/css">*{stroke-linejoin: round; stroke-linecap: butt}</style>
 </defs>
 <g id="figure_1">
  <g id="patch_1">
   <path d="M 0 512 
L 352 512 
L 352 0 
L 0 0 
z
" style="fill: #ffffff"/>
  </g>
  <g id="axes_1">
   <g id="patch_2">
    <path d="M 44 444.696774 
L 316.8 444.696774 
L 316.8 426.486244 
L 44 426.486244 
z
" clip-path="url(#p05064bae06)" style="fill-opacity: 0.05098"/>
   </g>
   <g id="patch_3">
    <path d="M 44 399.17045 
L 316.8 399.17045 
L 316.8 380.95992 
L 44 380.95992 
z
" clip-path="url(#p05064bae06)" style="fill-opacity: 0.05098"/>
   </g>
   <g id="patch_4">
    <path d="M 44 353.644125 
L 316.8 353.644125 
L 316.8 335.433595 
L 44 335.433595 
z
" clip-path="url(#p05064bae06)" style="fill-opacity: 0.05098"/>
   </g>
   <g id="patch_5">
    <path d="M 44 308.1178 
L 316.8 308.1178 
L 316.8 289.907271 
L 44 289.907271 
z
" clip-path="url(#p05064bae06)" style="fill-opacity: 0.05098"/>
   </g>
   <g id="patch_6">
    <path d="M 44 262.591476 
L 316.8 262.591476 
L 316.8 244.380946 
L 44 244.380946 
z
" clip-path="url(#p05064bae06)" style="fill-opacity: 0.05098"/>
   </g>
   <g id="matplotlib.axis_1"/>
   <g id="matplotlib.axis_2">
    <g id="ytick_1"/>
    <g id="ytick_2"/>
    <g id="ytick_3"/>
    <g id="ytick_4"/>
    <g id="ytick_5"/>
    <g id="ytick_6"/>
    <g id="ytick_7"/>
    <g id="ytick_8"/>
    <g id="ytick_9"/>
    <g id="ytick_10"/>
   </g>
  </g>
  <g id="axes_2">
   <g id="matplotlib.axis_3">
    <g id="ytick_11">
     <g id="line2d_1"/>
     <g id="text_1">
      <!-- &lt;schema.org/broadcastFrequency&gt; -->
      <g transform="translate(87.111971 439.390728) scale(0.1 -0.1)">
       <defs>
        <path id="DejaVuSans-3c" d="M 4684 3150 
L 1459 2003 
L 4684 863 
L 4684 294 
L 678 1747 
L 678 2266 
L 4684 3719 
L 4684 3150 
z
" transform="scale(0.015625)"/>
        <path id="DejaVuSans-73" d="M 2834 3397 
L 2834 2853 
Q 2591 2978 2328 3040 
Q 2066 3103 1784 3103 
Q 1356 3103 1142 2972 
Q 928 2841 928 2578 
Q 928 2378 1081 2264 
Q 1234 2150 1697 2047 
L 1894 2003 
Q 2506 1872 2764 1633 
Q 3022 1394 3022 966 
Q 3022 478 2636 193 
Q 2250 -91 1575 -91 
Q 1294 -91 989 -36 
Q 684 19 347 128 
L 347 722 
Q 666 556 975 473 
Q 1284 391 1588 391 
Q 1994 391 2212 530 
Q 2431 669 2431 922 
Q 2431 1156 2273 1281 
Q 2116 1406 1581 1522 
L 1381 1569 
Q 847 1681 609 1914 
Q 372 2147 372 2553 
Q 372 3047 722 3315 
Q 1072 3584 1716 3584 
Q 2034 3584 2315 3537 
Q 2597 3491 2834 3397 
z
" transform="scale(0.015625)"/>
        <path id="DejaVuSans-63" d="M 3122 3366 
L 3122 2828 
Q 2878 2963 2633 3030 
Q 2388 3097 2138 3097 
Q 1578 3097 1268 2742 
Q 959 2388 959 1747 
Q 959 1106 1268 751 
Q 1578 397 2138 397 
Q 2388 397 2633 464 
Q 2878 531 3122 666 
L 3122 134 
Q 2881 22 2623 -34 
Q 2366 -91 2075 -91 
Q 1284 -91 818 406 
Q 353 903 353 1747 
Q 353 2603 823 3093 
Q 1294 3584 2113 3584 
Q 2378 3584 2631 3529 
Q 2884 3475 3122 3366 
z
" transform="scale(0.015625)"/>
        <path id="DejaVuSans-68" d="M 3513 2113 
L 3513 0 
L 2938 0 
L 2938 2094 
Q 2938 2591 2744 2837 
Q 2550 3084 2163 3084 
Q 1697 3084 1428 2787 
Q 1159 2491 1159 1978 
L 1159 0 
L 581 0 
L 581 4863 
L 1159 4863 
L 1159 2956 
Q 1366 3272 1645 3428 
Q 1925 3584 2291 3584 
Q 2894 3584 3203 3211 
Q 3513 2838 3513 2113 
z
" transform="scale(0.015625)"/>
        <path id="DejaVuSans-65" d="M 3597 1894 
L 3597 1613 
L 953 1613 
Q 991 1019 1311 708 
Q 1631 397 2203 397 
Q 2534 397 2845 478 
Q 3156 559 3463 722 
L 3463 178 
Q 3153 47 2828 -22 
Q 2503 -91 2169 -91 
Q 1331 -91 842 396 
Q 353 884 353 1716 
Q 353 2575 817 3079 
Q 1281 3584 2069 3584 
Q 2775 3584 3186 3129 
Q 3597 2675 3597 1894 
z
M 3022 2063 
Q 3016 2534 2758 2815 
Q 2500 3097 2075 3097 
Q 1594 3097 1305 2825 
Q 1016 2553 972 2059 
L 3022 2063 
z
" transform="scale(0.015625)"/>
        <path id="DejaVuSans-6d" d="M 3328 2828 
Q 3544 3216 3844 3400 
Q 4144 3584 4550 3584 
Q 5097 3584 5394 3201 
Q 5691 2819 5691 2113 
L 5691 0 
L 5113 0 
L 5113 2094 
Q 5113 2597 4934 2840 
Q 4756 3084 4391 3084 
Q 3944 3084 3684 2787 
Q 3425 2491 3425 1978 
L 3425 0 
L 2847 0 
L 2847 2094 
Q 2847 2600 2669 2842 
Q 2491 3084 2119 3084 
Q 1678 3084 1418 2786 
Q 1159 2488 1159 1978 
L 1159 0 
L 581 0 
L 581 3500 
L 1159 3500 
L 1159 2956 
Q 1356 3278 1631 3431 
Q 1906 3584 2284 3584 
Q 2666 3584 2933 3390 
Q 3200 3197 3328 2828 
z
" transform="scale(0.015625)"/>
        <path id="DejaVuSans-61" d="M 2194 1759 
Q 1497 1759 1228 1600 
Q 959 1441 959 1056 
Q 959 750 1161 570 
Q 1363 391 1709 391 
Q 2188 391 2477 730 
Q 2766 1069 2766 1631 
L 2766 1759 
L 2194 1759 
z
M 3341 1997 
L 3341 0 
L 2766 0 
L 2766 531 
Q 2569 213 2275 61 
Q 1981 -91 1556 -91 
Q 1019 -91 701 211 
Q 384 513 384 1019 
Q 384 1609 779 1909 
Q 1175 2209 1959 2209 
L 2766 2209 
L 2766 2266 
Q 2766 2663 2505 2880 
Q 2244 3097 1772 3097 
Q 1472 3097 1187 3025 
Q 903 2953 641 2809 
L 641 3341 
Q 956 3463 1253 3523 
Q 1550 3584 1831 3584 
Q 2591 3584 2966 3190 
Q 3341 2797 3341 1997 
z
" transform="scale(0.015625)"/>
        <path id="DejaVuSans-2e" d="M 684 794 
L 1344 794 
L 1344 0 
L 684 0 
L 684 794 
z
" transform="scale(0.015625)"/>
        <path id="DejaVuSans-6f" d="M 1959 3097 
Q 1497 3097 1228 2736 
Q 959 2375 959 1747 
Q 959 1119 1226 758 
Q 1494 397 1959 397 
Q 2419 397 2687 759 
Q 2956 1122 2956 1747 
Q 2956 2369 2687 2733 
Q 2419 3097 1959 3097 
z
M 1959 3584 
Q 2709 3584 3137 3096 
Q 3566 2609 3566 1747 
Q 3566 888 3137 398 
Q 2709 -91 1959 -91 
Q 1206 -91 779 398 
Q 353 888 353 1747 
Q 353 2609 779 3096 
Q 1206 3584 1959 3584 
z
" transform="scale(0.015625)"/>
        <path id="DejaVuSans-72" d="M 2631 2963 
Q 2534 3019 2420 3045 
Q 2306 3072 2169 3072 
Q 1681 3072 1420 2755 
Q 1159 2438 1159 1844 
L 1159 0 
L 581 0 
L 581 3500 
L 1159 3500 
L 1159 2956 
Q 1341 3275 1631 3429 
Q 1922 3584 2338 3584 
Q 2397 3584 2469 3576 
Q 2541 3569 2628 3553 
L 2631 2963 
z
" transform="scale(0.015625)"/>
        <path id="DejaVuSans-67" d="M 2906 1791 
Q 2906 2416 2648 2759 
Q 2391 3103 1925 3103 
Q 1463 3103 1205 2759 
Q 947 2416 947 1791 
Q 947 1169 1205 825 
Q 1463 481 1925 481 
Q 2391 481 2648 825 
Q 2906 1169 2906 1791 
z
M 3481 434 
Q 3481 -459 3084 -895 
Q 2688 -1331 1869 -1331 
Q 1566 -1331 1297 -1286 
Q 1028 -1241 775 -1147 
L 775 -588 
Q 1028 -725 1275 -790 
Q 1522 -856 1778 -856 
Q 2344 -856 2625 -561 
Q 2906 -266 2906 331 
L 2906 616 
Q 2728 306 2450 153 
Q 2172 0 1784 0 
Q 1141 0 747 490 
Q 353 981 353 1791 
Q 353 2603 747 3093 
Q 1141 3584 1784 3584 
Q 2172 3584 2450 3431 
Q 2728 3278 2906 2969 
L 2906 3500 
L 3481 3500 
L 3481 434 
z
" transform="scale(0.015625)"/>
        <path id="DejaVuSans-2f" d="M 1625 4666 
L 2156 4666 
L 531 -594 
L 0 -594 
L 1625 4666 
z
" transform="scale(0.015625)"/>
        <path id="DejaVuSans-62" d="M 3116 1747 
Q 3116 2381 2855 2742 
Q 2594 3103 2138 3103 
Q 1681 3103 1420 2742 
Q 1159 2381 1159 1747 
Q 1159 1113 1420 752 
Q 1681 391 2138 391 
Q 2594 391 2855 752 
Q 3116 1113 3116 1747 
z
M 1159 2969 
Q 1341 3281 1617 3432 
Q 1894 3584 2278 3584 
Q 2916 3584 3314 3078 
Q 3713 2572 3713 1747 
Q 3713 922 3314 415 
Q 2916 -91 2278 -91 
Q 1894 -91 1617 61 
Q 1341 213 1159 525 
L 1159 0 
L 581 0 
L 581 4863 
L 1159 4863 
L 1159 2969 
z
" transform="scale(0.015625)"/>
        <path id="DejaVuSans-64" d="M 2906 2969 
L 2906 4863 
L 3481 4863 
L 3481 0 
L 2906 0 
L 2906 525 
Q 2725 213 2448 61 
Q 2172 -91 1784 -91 
Q 1150 -91 751 415 
Q 353 922 353 1747 
Q 353 2572 751 3078 
Q 1150 3584 1784 3584 
Q 2172 3584 2448 3432 
Q 2725 3281 2906 2969 
z
M 947 1747 
Q 947 1113 1208 752 
Q 1469 391 1925 391 
Q 2381 391 2643 752 
Q 2906 1113 2906 1747 
Q 2906 2381 2643 2742 
Q 2381 3103 1925 3103 
Q 1469 3103 1208 2742 
Q 947 2381 947 1747 
z
" transform="scale(0.015625)"/>
        <path id="DejaVuSans-74" d="M 1172 4494 
L 1172 3500 
L 2356 3500 
L 2356 3053 
L 1172 3053 
L 1172 1153 
Q 1172 725 1289 603 
Q 1406 481 1766 481 
L 2356 481 
L 2356 0 
L 1766 0 
Q 1100 0 847 248 
Q 594 497 594 1153 
L 594 3053 
L 172 3053 
L 172 3500 
L 594 3500 
L 594 4494 
L 1172 4494 
z
" transform="scale(0.015625)"/>
        <path id="DejaVuSans-46" d="M 628 4666 
L 3309 4666 
L 3309 4134 
L 1259 4134 
L 1259 2759 
L 3109 2759 
L 3109 2228 
L 1259 2228 
L 1259 0 
L 628 0 
L 628 4666 
z
" transform="scale(0.015625)"/>
        <path id="DejaVuSans-71" d="M 947 1747 
Q 947 1113 1208 752 
Q 1469 391 1925 391 
Q 2381 391 2643 752 
Q 2906 1113 2906 1747 
Q 2906 2381 2643 2742 
Q 2381 3103 1925 3103 
Q 1469 3103 1208 2742 
Q 947 2381 947 1747 
z
M 2906 525 
Q 2725 213 2448 61 
Q 2172 -91 1784 -91 
Q 1150 -91 751 415 
Q 353 922 353 1747 
Q 353 2572 751 3078 
Q 1150 3584 1784 3584 
Q 2172 3584 2448 3432 
Q 2725 3281 2906 2969 
L 2906 3500 
L 3481 3500 
L 3481 -1331 
L 2906 -1331 
L 2906 525 
z
" transform="scale(0.015625)"/>
        <path id="DejaVuSans-75" d="M 544 1381 
L 544 3500 
L 1119 3500 
L 1119 1403 
Q 1119 906 1312 657 
Q 1506 409 1894 409 
Q 2359 409 2629 706 
Q 2900 1003 2900 1516 
L 2900 3500 
L 3475 3500 
L 3475 0 
L 2900 0 
L 2900 538 
Q 2691 219 2414 64 
Q 2138 -91 1772 -91 
Q 1169 -91 856 284 
Q 544 659 544 1381 
z
M 1991 3584 
L 1991 3584 
z
" transform="scale(0.015625)"/>
        <path id="DejaVuSans-6e" d="M 3513 2113 
L 3513 0 
L 2938 0 
L 2938 2094 
Q 2938 2591 2744 2837 
Q 2550 3084 2163 3084 
Q 1697 3084 1428 2787 
Q 1159 2491 1159 1978 
L 1159 0 
L 581 0 
L 581 3500 
L 1159 3500 
L 1159 2956 
Q 1366 3272 1645 3428 
Q 1925 3584 2291 3584 
Q 2894 3584 3203 3211 
Q 3513 2838 3513 2113 
z
" transform="scale(0.015625)"/>
        <path id="DejaVuSans-79" d="M 2059 -325 
Q 1816 -950 1584 -1140 
Q 1353 -1331 966 -1331 
L 506 -1331 
L 506 -850 
L 844 -850 
Q 1081 -850 1212 -737 
Q 1344 -625 1503 -206 
L 1606 56 
L 191 3500 
L 800 3500 
L 1894 763 
L 2988 3500 
L 3597 3500 
L 2059 -325 
z
" transform="scale(0.015625)"/>
        <path id="DejaVuSans-3e" d="M 678 3150 
L 678 3719 
L 4684 2266 
L 4684 1747 
L 678 294 
L 678 863 
L 3897 2003 
L 678 3150 
z
" transform="scale(0.015625)"/>
       </defs>
       <use xlink:href="#DejaVuSans-3c"/>
       <use xlink:href="#DejaVuSans-73" x="83.789062"/>
       <use xlink:href="#DejaVuSans-63" x="135.888672"/>
       <use xlink:href="#DejaVuSans-68" x="190.869141"/>
       <use xlink:href="#DejaVuSans-65" x="254.248047"/>
       <use xlink:href="#DejaVuSans-6d" x="315.771484"/>
       <use xlink:href="#DejaVuSans-61" x="413.183594"/>
       <use xlink:href="#DejaVuSans-2e" x="474.462891"/>
       <use xlink:href="#DejaVuSans-6f" x="506.25"/>
       <use xlink:href="#DejaVuSans-72" x="567.431641"/>
       <use xlink:href="#DejaVuSans-67" x="606.794922"/>
       <use xlink:href="#DejaVuSans-2f" x="670.271484"/>
       <use xlink:href="#DejaVuSans-62" x="703.962891"/>
       <use xlink:href="#DejaVuSans-72" x="767.439453"/>
       <use xlink:href="#DejaVuSans-6f" x="806.302734"/>
       <use xlink:href="#DejaVuSans-61" x="867.484375"/>
       <use xlink:href="#DejaVuSans-64" x="928.763672"/>
       <use xlink:href="#DejaVuSans-63" x="992.240234"/>
       <use xlink:href="#DejaVuSans-61" x="1047.220703"/>
       <use xlink:href="#DejaVuSans-73" x="1108.5"/>
       <use xlink:href="#DejaVuSans-74" x="1160.599609"/>
       <use xlink:href="#DejaVuSans-46" x="1199.808594"/>
       <use xlink:href="#DejaVuSans-72" x="1250.078125"/>
       <use xlink:href="#DejaVuSans-65" x="1288.941406"/>
       <use xlink:href="#DejaVuSans-71" x="1350.464844"/>
       <use xlink:href="#DejaVuSans-75" x="1413.941406"/>
       <use xlink:href="#DejaVuSans-65" x="1477.320312"/>
       <use xlink:href="#DejaVuSans-6e" x="1538.84375"/>
       <use xlink:href="#DejaVuSans-63" x="1602.222656"/>
       <use xlink:href="#DejaVuSans-79" x="1657.203125"/>
       <use xlink:href="#DejaVuSans-3e" x="1716.382812"/>
      </g>
     </g>
    </g>
    <g id="ytick_12">
     <g id="line2d_2"/>
     <g id="text_2">
      <!-- &lt;schema.org/broadcastServiceTier&gt; -->
      <g transform="translate(82.972909 416.627566) scale(0.1 -0.1)">
       <defs>
        <path id="DejaVuSans-53" d="M 3425 4513 
L 3425 3897 
Q 3066 4069 2747 4153 
Q 2428 4238 2131 4238 
Q 1616 4238 1336 4038 
Q 1056 3838 1056 3469 
Q 1056 3159 1242 3001 
Q 1428 2844 1947 2747 
L 2328 2669 
Q 3034 2534 3370 2195 
Q 3706 1856 3706 1288 
Q 3706 609 3251 259 
Q 2797 -91 1919 -91 
Q 1588 -91 1214 -16 
Q 841 59 441 206 
L 441 856 
Q 825 641 1194 531 
Q 1563 422 1919 422 
Q 2459 422 2753 634 
Q 3047 847 3047 1241 
Q 3047 1584 2836 1778 
Q 2625 1972 2144 2069 
L 1759 2144 
Q 1053 2284 737 2584 
Q 422 2884 422 3419 
Q 422 4038 858 4394 
Q 1294 4750 2059 4750 
Q 2388 4750 2728 4690 
Q 3069 4631 3425 4513 
z
" transform="scale(0.015625)"/>
        <path id="DejaVuSans-76" d="M 191 3500 
L 800 3500 
L 1894 563 
L 2988 3500 
L 3597 3500 
L 2284 0 
L 1503 0 
L 191 3500 
z
" transform="scale(0.015625)"/>
        <path id="DejaVuSans-69" d="M 603 3500 
L 1178 3500 
L 1178 0 
L 603 0 
L 603 3500 
z
M 603 4863 
L 1178 4863 
L 1178 4134 
L 603 4134 
L 603 4863 
z
" transform="scale(0.015625)"/>
        <path id="DejaVuSans-54" d="M -19 4666 
L 3928 4666 
L 3928 4134 
L 2272 4134 
L 2272 0 
L 1638 0 
L 1638 4134 
L -19 4134 
L -19 4666 
z
" transform="scale(0.015625)"/>
       </defs>
       <use xlink:href="#DejaVuSans-3c"/>
       <use xlink:href="#DejaVuSans-73" x="83.789062"/>
       <use xlink:href="#DejaVuSans-63" x="135.888672"/>
       <use xlink:href="#DejaVuSans-68" x="190.869141"/>
       <use xlink:href="#DejaVuSans-65" x="254.248047"/>
       <use xlink:href="#DejaVuSans-6d" x="315.771484"/>
       <use xlink:href="#DejaVuSans-61" x="413.183594"/>
       <use xlink:href="#DejaVuSans-2e" x="474.462891"/>
       <use xlink:href="#DejaVuSans-6f" x="506.25"/>
       <use xlink:href="#DejaVuSans-72" x="567.431641"/>
       <use xlink:href="#DejaVuSans-67" x="606.794922"/>
       <use xlink:href="#DejaVuSans-2f" x="670.271484"/>
       <use xlink:href="#DejaVuSans-62" x="703.962891"/>
       <use xlink:href="#DejaVuSans-72" x="767.439453"/>
       <use xlink:href="#DejaVuSans-6f" x="806.302734"/>
       <use xlink:href="#DejaVuSans-61" x="867.484375"/>
       <use xlink:href="#DejaVuSans-64" x="928.763672"/>
       <use xlink:href="#DejaVuSans-63" x="992.240234"/>
       <use xlink:href="#DejaVuSans-61" x="1047.220703"/>
       <use xlink:href="#DejaVuSans-73" x="1108.5"/>
       <use xlink:href="#DejaVuSans-74" x="1160.599609"/>
       <use xlink:href="#DejaVuSans-53" x="1199.808594"/>
       <use xlink:href="#DejaVuSans-65" x="1263.285156"/>
       <use xlink:href="#DejaVuSans-72" x="1324.808594"/>
       <use xlink:href="#DejaVuSans-76" x="1365.921875"/>
       <use xlink:href="#DejaVuSans-69" x="1425.101562"/>
       <use xlink:href="#DejaVuSans-63" x="1452.884766"/>
       <use xlink:href="#DejaVuSans-65" x="1507.865234"/>
       <use xlink:href="#DejaVuSans-54" x="1569.388672"/>
       <use xlink:href="#DejaVuSans-69" x="1627.347656"/>
       <use xlink:href="#DejaVuSans-65" x="1655.130859"/>
       <use xlink:href="#DejaVuSans-72" x="1716.654297"/>
       <use xlink:href="#DejaVuSans-3e" x="1757.767578"/>
      </g>
     </g>
    </g>
    <g id="ytick_13">
     <g id="line2d_3"/>
     <g id="text_3">
      <!-- &lt;schema.org/description&gt; -->
      <g transform="translate(132.755721 393.864403) scale(0.1 -0.1)">
       <defs>
        <path id="DejaVuSans-70" d="M 1159 525 
L 1159 -1331 
L 581 -1331 
L 581 3500 
L 1159 3500 
L 1159 2969 
Q 1341 3281 1617 3432 
Q 1894 3584 2278 3584 
Q 2916 3584 3314 3078 
Q 3713 2572 3713 1747 
Q 3713 922 3314 415 
Q 2916 -91 2278 -91 
Q 1894 -91 1617 61 
Q 1341 213 1159 525 
z
M 3116 1747 
Q 3116 2381 2855 2742 
Q 2594 3103 2138 3103 
Q 1681 3103 1420 2742 
Q 1159 2381 1159 1747 
Q 1159 1113 1420 752 
Q 1681 391 2138 391 
Q 2594 391 2855 752 
Q 3116 1113 3116 1747 
z
" transform="scale(0.015625)"/>
       </defs>
       <use xlink:href="#DejaVuSans-3c"/>
       <use xlink:href="#DejaVuSans-73" x="83.789062"/>
       <use xlink:href="#DejaVuSans-63" x="135.888672"/>
       <use xlink:href="#DejaVuSans-68" x="190.869141"/>
       <use xlink:href="#DejaVuSans-65" x="254.248047"/>
       <use xlink:href="#DejaVuSans-6d" x="315.771484"/>
       <use xlink:href="#DejaVuSans-61" x="413.183594"/>
       <use xlink:href="#DejaVuSans-2e" x="474.462891"/>
       <use xlink:href="#DejaVuSans-6f" x="506.25"/>
       <use xlink:href="#DejaVuSans-72" x="567.431641"/>
       <use xlink:href="#DejaVuSans-67" x="606.794922"/>
       <use xlink:href="#DejaVuSans-2f" x="670.271484"/>
       <use xlink:href="#DejaVuSans-64" x="703.962891"/>
       <use xlink:href="#DejaVuSans-65" x="767.439453"/>
       <use xlink:href="#DejaVuSans-73" x="828.962891"/>
       <use xlink:href="#DejaVuSans-63" x="881.0625"/>
       <use xlink:href="#DejaVuSans-72" x="936.042969"/>
       <use xlink:href="#DejaVuSans-69" x="977.15625"/>
       <use xlink:href="#DejaVuSans-70" x="1004.939453"/>
       <use xlink:href="#DejaVuSans-74" x="1068.416016"/>
       <use xlink:href="#DejaVuSans-69" x="1107.625"/>
       <use xlink:href="#DejaVuSans-6f" x="1135.408203"/>
       <use xlink:href="#DejaVuSans-6e" x="1196.589844"/>
       <use xlink:href="#DejaVuSans-3e" x="1259.96875"/>
      </g>
     </g>
    </g>
    <g id="ytick_14">
     <g id="line2d_4"/>
     <g id="text_4">
      <!-- &lt;schema.org/image&gt; -->
      <g transform="translate(157.208846 371.101241) scale(0.1 -0.1)">
       <use xlink:href="#DejaVuSans-3c"/>
       <use xlink:href="#DejaVuSans-73" x="83.789062"/>
       <use xlink:href="#DejaVuSans-63" x="135.888672"/>
       <use xlink:href="#DejaVuSans-68" x="190.869141"/>
       <use xlink:href="#DejaVuSans-65" x="254.248047"/>
       <use xlink:href="#DejaVuSans-6d" x="315.771484"/>
       <use xlink:href="#DejaVuSans-61" x="413.183594"/>
       <use xlink:href="#DejaVuSans-2e" x="474.462891"/>
       <use xlink:href="#DejaVuSans-6f" x="506.25"/>
       <use xlink:href="#DejaVuSans-72" x="567.431641"/>
       <use xlink:href="#DejaVuSans-67" x="606.794922"/>
       <use xlink:href="#DejaVuSans-2f" x="670.271484"/>
       <use xlink:href="#DejaVuSans-69" x="703.962891"/>
       <use xlink:href="#DejaVuSans-6d" x="731.746094"/>
       <use xlink:href="#DejaVuSans-61" x="829.158203"/>
       <use xlink:href="#DejaVuSans-67" x="890.4375"/>
       <use xlink:href="#DejaVuSans-65" x="953.914062"/>
       <use xlink:href="#DejaVuSans-3e" x="1015.4375"/>
      </g>
     </g>
    </g>
    <g id="ytick_15">
     <g id="line2d_5"/>
     <g id="text_5">
      <!-- &lt;schema.org/name&gt; -->
      <g transform="translate(159.997909 348.338079) scale(0.1 -0.1)">
       <use xlink:href="#DejaVuSans-3c"/>
       <use xlink:href="#DejaVuSans-73" x="83.789062"/>
       <use xlink:href="#DejaVuSans-63" x="135.888672"/>
       <use xlink:href="#DejaVuSans-68" x="190.869141"/>
       <use xlink:href="#DejaVuSans-65" x="254.248047"/>
       <use xlink:href="#DejaVuSans-6d" x="315.771484"/>
       <use xlink:href="#DejaVuSans-61" x="413.183594"/>
       <use xlink:href="#DejaVuSans-2e" x="474.462891"/>
       <use xlink:href="#DejaVuSans-6f" x="506.25"/>
       <use xlink:href="#DejaVuSans-72" x="567.431641"/>
       <use xlink:href="#DejaVuSans-67" x="606.794922"/>
       <use xlink:href="#DejaVuSans-2f" x="670.271484"/>
       <use xlink:href="#DejaVuSans-6e" x="703.962891"/>
       <use xlink:href="#DejaVuSans-61" x="767.341797"/>
       <use xlink:href="#DejaVuSans-6d" x="828.621094"/>
       <use xlink:href="#DejaVuSans-65" x="926.033203"/>
       <use xlink:href="#DejaVuSans-3e" x="987.556641"/>
      </g>
     </g>
    </g>
    <g id="ytick_16">
     <g id="line2d_6"/>
     <g id="text_6">
      <!-- isa:&lt;schema.org/FMRadioChannel&gt; -->
      <g transform="translate(87.341659 325.574917) scale(0.1 -0.1)">
       <defs>
        <path id="DejaVuSans-3a" d="M 750 794 
L 1409 794 
L 1409 0 
L 750 0 
L 750 794 
z
M 750 3309 
L 1409 3309 
L 1409 2516 
L 750 2516 
L 750 3309 
z
" transform="scale(0.015625)"/>
        <path id="DejaVuSans-4d" d="M 628 4666 
L 1569 4666 
L 2759 1491 
L 3956 4666 
L 4897 4666 
L 4897 0 
L 4281 0 
L 4281 4097 
L 3078 897 
L 2444 897 
L 1241 4097 
L 1241 0 
L 628 0 
L 628 4666 
z
" transform="scale(0.015625)"/>
        <path id="DejaVuSans-52" d="M 2841 2188 
Q 3044 2119 3236 1894 
Q 3428 1669 3622 1275 
L 4263 0 
L 3584 0 
L 2988 1197 
Q 2756 1666 2539 1819 
Q 2322 1972 1947 1972 
L 1259 1972 
L 1259 0 
L 628 0 
L 628 4666 
L 2053 4666 
Q 2853 4666 3247 4331 
Q 3641 3997 3641 3322 
Q 3641 2881 3436 2590 
Q 3231 2300 2841 2188 
z
M 1259 4147 
L 1259 2491 
L 2053 2491 
Q 2509 2491 2742 2702 
Q 2975 2913 2975 3322 
Q 2975 3731 2742 3939 
Q 2509 4147 2053 4147 
L 1259 4147 
z
" transform="scale(0.015625)"/>
        <path id="DejaVuSans-43" d="M 4122 4306 
L 4122 3641 
Q 3803 3938 3442 4084 
Q 3081 4231 2675 4231 
Q 1875 4231 1450 3742 
Q 1025 3253 1025 2328 
Q 1025 1406 1450 917 
Q 1875 428 2675 428 
Q 3081 428 3442 575 
Q 3803 722 4122 1019 
L 4122 359 
Q 3791 134 3420 21 
Q 3050 -91 2638 -91 
Q 1578 -91 968 557 
Q 359 1206 359 2328 
Q 359 3453 968 4101 
Q 1578 4750 2638 4750 
Q 3056 4750 3426 4639 
Q 3797 4528 4122 4306 
z
" transform="scale(0.015625)"/>
        <path id="DejaVuSans-6c" d="M 603 4863 
L 1178 4863 
L 1178 0 
L 603 0 
L 603 4863 
z
" transform="scale(0.015625)"/>
       </defs>
       <use xlink:href="#DejaVuSans-69"/>
       <use xlink:href="#DejaVuSans-73" x="27.783203"/>
       <use xlink:href="#DejaVuSans-61" x="79.882812"/>
       <use xlink:href="#DejaVuSans-3a" x="141.162109"/>
       <use xlink:href="#DejaVuSans-3c" x="174.853516"/>
       <use xlink:href="#DejaVuSans-73" x="258.642578"/>
       <use xlink:href="#DejaVuSans-63" x="310.742188"/>
       <use xlink:href="#DejaVuSans-68" x="365.722656"/>
       <use xlink:href="#DejaVuSans-65" x="429.101562"/>
       <use xlink:href="#DejaVuSans-6d" x="490.625"/>
       <use xlink:href="#DejaVuSans-61" x="588.037109"/>
       <use xlink:href="#DejaVuSans-2e" x="649.316406"/>
       <use xlink:href="#DejaVuSans-6f" x="681.103516"/>
       <use xlink:href="#DejaVuSans-72" x="742.285156"/>
       <use xlink:href="#DejaVuSans-67" x="781.648438"/>
       <use xlink:href="#DejaVuSans-2f" x="845.125"/>
       <use xlink:href="#DejaVuSans-46" x="878.816406"/>
       <use xlink:href="#DejaVuSans-4d" x="936.335938"/>
       <use xlink:href="#DejaVuSans-52" x="1022.615234"/>
       <use xlink:href="#DejaVuSans-61" x="1089.847656"/>
       <use xlink:href="#DejaVuSans-64" x="1151.126953"/>
       <use xlink:href="#DejaVuSans-69" x="1214.603516"/>
       <use xlink:href="#DejaVuSans-6f" x="1242.386719"/>
       <use xlink:href="#DejaVuSans-43" x="1303.568359"/>
       <use xlink:href="#DejaVuSans-68" x="1373.392578"/>
       <use xlink:href="#DejaVuSans-61" x="1436.771484"/>
       <use xlink:href="#DejaVuSans-6e" x="1498.050781"/>
       <use xlink:href="#DejaVuSans-6e" x="1561.429688"/>
       <use xlink:href="#DejaVuSans-65" x="1624.808594"/>
       <use xlink:href="#DejaVuSans-6c" x="1686.332031"/>
       <use xlink:href="#DejaVuSans-3e" x="1714.115234"/>
      </g>
     </g>
    </g>
    <g id="ytick_17">
     <g id="line2d_7"/>
     <g id="text_7">
      <!-- &lt;schema.org/identifier&gt; -->
      <g transform="translate(143.479159 302.811754) scale(0.1 -0.1)">
       <defs>
        <path id="DejaVuSans-66" d="M 2375 4863 
L 2375 4384 
L 1825 4384 
Q 1516 4384 1395 4259 
Q 1275 4134 1275 3809 
L 1275 3500 
L 2222 3500 
L 2222 3053 
L 1275 3053 
L 1275 0 
L 697 0 
L 697 3053 
L 147 3053 
L 147 3500 
L 697 3500 
L 697 3744 
Q 697 4328 969 4595 
Q 1241 4863 1831 4863 
L 2375 4863 
z
" transform="scale(0.015625)"/>
       </defs>
       <use xlink:href="#DejaVuSans-3c"/>
       <use xlink:href="#DejaVuSans-73" x="83.789062"/>
       <use xlink:href="#DejaVuSans-63" x="135.888672"/>
       <use xlink:href="#DejaVuSans-68" x="190.869141"/>
       <use xlink:href="#DejaVuSans-65" x="254.248047"/>
       <use xlink:href="#DejaVuSans-6d" x="315.771484"/>
       <use xlink:href="#DejaVuSans-61" x="413.183594"/>
       <use xlink:href="#DejaVuSans-2e" x="474.462891"/>
       <use xlink:href="#DejaVuSans-6f" x="506.25"/>
       <use xlink:href="#DejaVuSans-72" x="567.431641"/>
       <use xlink:href="#DejaVuSans-67" x="606.794922"/>
       <use xlink:href="#DejaVuSans-2f" x="670.271484"/>
       <use xlink:href="#DejaVuSans-69" x="703.962891"/>
       <use xlink:href="#DejaVuSans-64" x="731.746094"/>
       <use xlink:href="#DejaVuSans-65" x="795.222656"/>
       <use xlink:href="#DejaVuSans-6e" x="856.746094"/>
       <use xlink:href="#DejaVuSans-74" x="920.125"/>
       <use xlink:href="#DejaVuSans-69" x="959.333984"/>
       <use xlink:href="#DejaVuSans-66" x="987.117188"/>
       <use xlink:href="#DejaVuSans-69" x="1022.322266"/>
       <use xlink:href="#DejaVuSans-65" x="1050.105469"/>
       <use xlink:href="#DejaVuSans-72" x="1111.628906"/>
       <use xlink:href="#DejaVuSans-3e" x="1152.742188"/>
      </g>
     </g>
    </g>
    <g id="ytick_18">
     <g id="line2d_8"/>
     <g id="text_8">
      <!-- &lt;schema.org/sameAs&gt; -->
      <g transform="translate(149.076034 280.048592) scale(0.1 -0.1)">
       <defs>
        <path id="DejaVuSans-41" d="M 2188 4044 
L 1331 1722 
L 3047 1722 
L 2188 4044 
z
M 1831 4666 
L 2547 4666 
L 4325 0 
L 3669 0 
L 3244 1197 
L 1141 1197 
L 716 0 
L 50 0 
L 1831 4666 
z
" transform="scale(0.015625)"/>
       </defs>
       <use xlink:href="#DejaVuSans-3c"/>
       <use xlink:href="#DejaVuSans-73" x="83.789062"/>
       <use xlink:href="#DejaVuSans-63" x="135.888672"/>
       <use xlink:href="#DejaVuSans-68" x="190.869141"/>
       <use xlink:href="#DejaVuSans-65" x="254.248047"/>
       <use xlink:href="#DejaVuSans-6d" x="315.771484"/>
       <use xlink:href="#DejaVuSans-61" x="413.183594"/>
       <use xlink:href="#DejaVuSans-2e" x="474.462891"/>
       <use xlink:href="#DejaVuSans-6f" x="506.25"/>
       <use xlink:href="#DejaVuSans-72" x="567.431641"/>
       <use xlink:href="#DejaVuSans-67" x="606.794922"/>
       <use xlink:href="#DejaVuSans-2f" x="670.271484"/>
       <use xlink:href="#DejaVuSans-73" x="703.962891"/>
       <use xlink:href="#DejaVuSans-61" x="756.0625"/>
       <use xlink:href="#DejaVuSans-6d" x="817.341797"/>
       <use xlink:href="#DejaVuSans-65" x="914.753906"/>
       <use xlink:href="#DejaVuSans-41" x="976.277344"/>
       <use xlink:href="#DejaVuSans-73" x="1044.685547"/>
       <use xlink:href="#DejaVuSans-3e" x="1096.785156"/>
      </g>
     </g>
    </g>
    <g id="ytick_19">
     <g id="line2d_9"/>
     <g id="text_9">
      <!-- &lt;schema.org/url&gt; -->
      <g transform="translate(175.130721 257.28543) scale(0.1 -0.1)">
       <use xlink:href="#DejaVuSans-3c"/>
       <use xlink:href="#DejaVuSans-73" x="83.789062"/>
       <use xlink:href="#DejaVuSans-63" x="135.888672"/>
       <use xlink:href="#DejaVuSans-68" x="190.869141"/>
       <use xlink:href="#DejaVuSans-65" x="254.248047"/>
       <use xlink:href="#DejaVuSans-6d" x="315.771484"/>
       <use xlink:href="#DejaVuSans-61" x="413.183594"/>
       <use xlink:href="#DejaVuSans-2e" x="474.462891"/>
       <use xlink:href="#DejaVuSans-6f" x="506.25"/>
       <use xlink:href="#DejaVuSans-72" x="567.431641"/>
       <use xlink:href="#DejaVuSans-67" x="606.794922"/>
       <use xlink:href="#DejaVuSans-2f" x="670.271484"/>
       <use xlink:href="#DejaVuSans-75" x="703.962891"/>
       <use xlink:href="#DejaVuSans-72" x="767.341797"/>
       <use xlink:href="#DejaVuSans-6c" x="808.455078"/>
       <use xlink:href="#DejaVuSans-3e" x="836.238281"/>
      </g>
     </g>
    </g>
    <g id="ytick_20">
     <g id="line2d_10"/>
     <g id="text_10">
      <!-- &lt;schema.org/genre&gt; -->
      <g transform="translate(159.479159 234.522267) scale(0.1 -0.1)">
       <use xlink:href="#DejaVuSans-3c"/>
       <use xlink:href="#DejaVuSans-73" x="83.789062"/>
       <use xlink:href="#DejaVuSans-63" x="135.888672"/>
       <use xlink:href="#DejaVuSans-68" x="190.869141"/>
       <use xlink:href="#DejaVuSans-65" x="254.248047"/>
       <use xlink:href="#DejaVuSans-6d" x="315.771484"/>
       <use xlink:href="#DejaVuSans-61" x="413.183594"/>
       <use xlink:href="#DejaVuSans-2e" x="474.462891"/>
       <use xlink:href="#DejaVuSans-6f" x="506.25"/>
       <use xlink:href="#DejaVuSans-72" x="567.431641"/>
       <use xlink:href="#DejaVuSans-67" x="606.794922"/>
       <use xlink:href="#DejaVuSans-2f" x="670.271484"/>
       <use xlink:href="#DejaVuSans-67" x="703.962891"/>
       <use xlink:href="#DejaVuSans-65" x="767.439453"/>
       <use xlink:href="#DejaVuSans-6e" x="828.962891"/>
       <use xlink:href="#DejaVuSans-72" x="892.341797"/>
       <use xlink:href="#DejaVuSans-65" x="931.205078"/>
       <use xlink:href="#DejaVuSans-3e" x="992.728516"/>
      </g>
     </g>
    </g>
   </g>
   <g id="LineCollection_1">
    <path d="M 282.175385 435.591509 
L 282.175385 230.723049 
" clip-path="url(#pe3093fa533)" style="fill: none; stroke: #000000; stroke-width: 2"/>
    <path d="M 305.258462 435.591509 
L 305.258462 253.486211 
" clip-path="url(#pe3093fa533)" style="fill: none; stroke: #000000; stroke-width: 2"/>
   </g>
   <g id="PathCollection_1">
    <defs>
     <path id="C0_0_4f01fd222c" d="M 0 5.6 
C 1.485137 5.6 2.909647 5.009949 3.959798 3.959798 
C 5.009949 2.909647 5.6 1.485137 5.6 -0 
C 5.6 -1.485137 5.009949 -2.909647 3.959798 -3.959798 
C 2.909647 -5.009949 1.485137 -5.6 0 -5.6 
C -1.485137 -5.6 -2.909647 -5.009949 -3.959798 -3.959798 
C -5.009949 -2.909647 -5.6 -1.485137 -5.6 0 
C -5.6 1.485137 -5.009949 2.909647 -3.959798 3.959798 
C -2.909647 5.009949 -1.485137 5.6 0 5.6 
z
"/>
    </defs>
    <g clip-path="url(#pe3093fa533)">
     <use xlink:href="#C0_0_4f01fd222c" x="282.175385" y="435.591509" style="stroke: #000000"/>
    </g>
    <g clip-path="url(#pe3093fa533)">
     <use xlink:href="#C0_0_4f01fd222c" x="282.175385" y="412.828347" style="stroke: #000000"/>
    </g>
    <g clip-path="url(#pe3093fa533)">
     <use xlink:href="#C0_0_4f01fd222c" x="282.175385" y="390.065185" style="stroke: #000000"/>
    </g>
    <g clip-path="url(#pe3093fa533)">
     <use xlink:href="#C0_0_4f01fd222c" x="282.175385" y="367.302022" style="stroke: #000000"/>
    </g>
    <g clip-path="url(#pe3093fa533)">
     <use xlink:href="#C0_0_4f01fd222c" x="282.175385" y="344.53886" style="stroke: #000000"/>
    </g>
    <g clip-path="url(#pe3093fa533)">
     <use xlink:href="#C0_0_4f01fd222c" x="282.175385" y="321.775698" style="stroke: #000000"/>
    </g>
    <g clip-path="url(#pe3093fa533)">
     <use xlink:href="#C0_0_4f01fd222c" x="282.175385" y="299.012536" style="fill-opacity: 0.180392"/>
    </g>
    <g clip-path="url(#pe3093fa533)">
     <use xlink:href="#C0_0_4f01fd222c" x="282.175385" y="276.249373" style="fill-opacity: 0.180392"/>
    </g>
    <g clip-path="url(#pe3093fa533)">
     <use xlink:href="#C0_0_4f01fd222c" x="282.175385" y="253.486211" style="fill-opacity: 0.180392"/>
    </g>
    <g clip-path="url(#pe3093fa533)">
     <use xlink:href="#C0_0_4f01fd222c" x="282.175385" y="230.723049" style="stroke: #000000"/>
    </g>
    <g clip-path="url(#pe3093fa533)">
     <use xlink:href="#C0_0_4f01fd222c" x="305.258462" y="435.591509" style="stroke: #000000"/>
    </g>
    <g clip-path="url(#pe3093fa533)">
     <use xlink:href="#C0_0_4f01fd222c" x="305.258462" y="412.828347" style="stroke: #000000"/>
    </g>
    <g clip-path="url(#pe3093fa533)">
     <use xlink:href="#C0_0_4f01fd222c" x="305.258462" y="390.065185" style="stroke: #000000"/>
    </g>
    <g clip-path="url(#pe3093fa533)">
     <use xlink:href="#C0_0_4f01fd222c" x="305.258462" y="367.302022" style="stroke: #000000"/>
    </g>
    <g clip-path="url(#pe3093fa533)">
     <use xlink:href="#C0_0_4f01fd222c" x="305.258462" y="344.53886" style="stroke: #000000"/>
    </g>
    <g clip-path="url(#pe3093fa533)">
     <use xlink:href="#C0_0_4f01fd222c" x="305.258462" y="321.775698" style="stroke: #000000"/>
    </g>
    <g clip-path="url(#pe3093fa533)">
     <use xlink:href="#C0_0_4f01fd222c" x="305.258462" y="299.012536" style="stroke: #000000"/>
    </g>
    <g clip-path="url(#pe3093fa533)">
     <use xlink:href="#C0_0_4f01fd222c" x="305.258462" y="276.249373" style="stroke: #000000"/>
    </g>
    <g clip-path="url(#pe3093fa533)">
     <use xlink:href="#C0_0_4f01fd222c" x="305.258462" y="253.486211" style="stroke: #000000"/>
    </g>
    <g clip-path="url(#pe3093fa533)">
     <use xlink:href="#C0_0_4f01fd222c" x="305.258462" y="230.723049" style="fill-opacity: 0.180392"/>
    </g>
   </g>
  </g>
  <g id="axes_3">
   <g id="patch_7">
    <path d="M 90.166154 441.2823 
L 44 441.2823 
L 44 429.900719 
L 90.166154 429.900719 
z
" clip-path="url(#p7f1bbf2022)"/>
   </g>
   <g id="patch_8">
    <path d="M 90.166154 418.519138 
L 44 418.519138 
L 44 407.137556 
L 90.166154 407.137556 
z
" clip-path="url(#p7f1bbf2022)"/>
   </g>
   <g id="patch_9">
    <path d="M 90.166154 395.755975 
L 44 395.755975 
L 44 384.374394 
L 90.166154 384.374394 
z
" clip-path="url(#p7f1bbf2022)"/>
   </g>
   <g id="patch_10">
    <path d="M 90.166154 372.992813 
L 44 372.992813 
L 44 361.611232 
L 90.166154 361.611232 
z
" clip-path="url(#p7f1bbf2022)"/>
   </g>
   <g id="patch_11">
    <path d="M 90.166154 350.229651 
L 44 350.229651 
L 44 338.84807 
L 90.166154 338.84807 
z
" clip-path="url(#p7f1bbf2022)"/>
   </g>
   <g id="patch_12">
    <path d="M 90.166154 327.466488 
L 44 327.466488 
L 44 316.084907 
L 90.166154 316.084907 
z
" clip-path="url(#p7f1bbf2022)"/>
   </g>
   <g id="patch_13">
    <path d="M 90.166154 304.703326 
L 49.129573 304.703326 
L 49.129573 293.321745 
L 90.166154 293.321745 
z
" clip-path="url(#p7f1bbf2022)"/>
   </g>
   <g id="patch_14">
    <path d="M 90.166154 281.940164 
L 49.129573 281.940164 
L 49.129573 270.558583 
L 90.166154 270.558583 
z
" clip-path="url(#p7f1bbf2022)"/>
   </g>
   <g id="patch_15">
    <path d="M 90.166154 259.177002 
L 49.129573 259.177002 
L 49.129573 247.79542 
L 90.166154 247.79542 
z
" clip-path="url(#p7f1bbf2022)"/>
   </g>
   <g id="patch_16">
    <path d="M 90.166154 236.413839 
L 85.036581 236.413839 
L 85.036581 225.032258 
L 90.166154 225.032258 
z
" clip-path="url(#p7f1bbf2022)"/>
   </g>
   <g id="matplotlib.axis_4">
    <g id="xtick_1">
     <g id="line2d_11">
      <path d="M 90.166154 455.68 
L 90.166154 214.049032 
" clip-path="url(#p7f1bbf2022)" style="fill: none; stroke: #b0b0b0; stroke-width: 0.8; stroke-linecap: square"/>
     </g>
     <g id="line2d_12">
      <defs>
       <path id="m786dee35a3" d="M 0 0 
L 0 3.5 
" style="stroke: #000000; stroke-width: 0.8"/>
      </defs>
      <g>
       <use xlink:href="#m786dee35a3" x="90.166154" y="455.68" style="stroke: #000000; stroke-width: 0.8"/>
      </g>
     </g>
     <g id="text_11">
      <!-- 0 -->
      <g transform="translate(86.984904 470.278437) scale(0.1 -0.1)">
       <defs>
        <path id="DejaVuSans-30" d="M 2034 4250 
Q 1547 4250 1301 3770 
Q 1056 3291 1056 2328 
Q 1056 1369 1301 889 
Q 1547 409 2034 409 
Q 2525 409 2770 889 
Q 3016 1369 3016 2328 
Q 3016 3291 2770 3770 
Q 2525 4250 2034 4250 
z
M 2034 4750 
Q 2819 4750 3233 4129 
Q 3647 3509 3647 2328 
Q 3647 1150 3233 529 
Q 2819 -91 2034 -91 
Q 1250 -91 836 529 
Q 422 1150 422 2328 
Q 422 3509 836 4129 
Q 1250 4750 2034 4750 
z
" transform="scale(0.015625)"/>
       </defs>
       <use xlink:href="#DejaVuSans-30"/>
      </g>
     </g>
    </g>
    <g id="xtick_2">
     <g id="line2d_13">
      <path d="M 64.518291 455.68 
L 64.518291 214.049032 
" clip-path="url(#p7f1bbf2022)" style="fill: none; stroke: #b0b0b0; stroke-width: 0.8; stroke-linecap: square"/>
     </g>
     <g id="line2d_14">
      <g>
       <use xlink:href="#m786dee35a3" x="64.518291" y="455.68" style="stroke: #000000; stroke-width: 0.8"/>
      </g>
     </g>
     <g id="text_12">
      <!-- 10 -->
      <g transform="translate(58.155791 470.278437) scale(0.1 -0.1)">
       <defs>
        <path id="DejaVuSans-31" d="M 794 531 
L 1825 531 
L 1825 4091 
L 703 3866 
L 703 4441 
L 1819 4666 
L 2450 4666 
L 2450 531 
L 3481 531 
L 3481 0 
L 794 0 
L 794 531 
z
" transform="scale(0.015625)"/>
       </defs>
       <use xlink:href="#DejaVuSans-31"/>
       <use xlink:href="#DejaVuSans-30" x="63.623047"/>
      </g>
     </g>
    </g>
   </g>
   <g id="patch_17">
    <path d="M 44 455.68 
L 90.166154 455.68 
" style="fill: none; stroke: #000000; stroke-width: 0.8; stroke-linejoin: miter; stroke-linecap: square"/>
   </g>
  </g>
  <g id="axes_4">
   <g id="patch_18">
    <path d="M 270.633846 201.331613 
L 316.8 201.331613 
L 316.8 61.44 
L 270.633846 61.44 
z
" style="fill: #ffffff"/>
   </g>
   <g id="matplotlib.axis_5">
    <g id="ytick_21">
     <g id="line2d_15">
      <path d="M 270.633846 201.331613 
L 316.8 201.331613 
" clip-path="url(#p0c0ac6991b)" style="fill: none; stroke: #b0b0b0; stroke-width: 0.8; stroke-linecap: square"/>
     </g>
     <g id="line2d_16">
      <defs>
       <path id="mef81f19c5c" d="M 0 0 
L -3.5 0 
" style="stroke: #000000; stroke-width: 0.8"/>
      </defs>
      <g>
       <use xlink:href="#mef81f19c5c" x="270.633846" y="201.331613" style="stroke: #000000; stroke-width: 0.8"/>
      </g>
     </g>
     <g id="text_13">
      <!-- 0 -->
      <g transform="translate(257.271346 205.130832) scale(0.1 -0.1)">
       <use xlink:href="#DejaVuSans-30"/>
      </g>
     </g>
    </g>
    <g id="ytick_22">
     <g id="line2d_17">
      <path d="M 270.633846 159.697204 
L 316.8 159.697204 
" clip-path="url(#p0c0ac6991b)" style="fill: none; stroke: #b0b0b0; stroke-width: 0.8; stroke-linecap: square"/>
     </g>
     <g id="line2d_18">
      <g>
       <use xlink:href="#mef81f19c5c" x="270.633846" y="159.697204" style="stroke: #000000; stroke-width: 0.8"/>
      </g>
     </g>
     <g id="text_14">
      <!-- 5 -->
      <g transform="translate(257.271346 163.496423) scale(0.1 -0.1)">
       <defs>
        <path id="DejaVuSans-35" d="M 691 4666 
L 3169 4666 
L 3169 4134 
L 1269 4134 
L 1269 2991 
Q 1406 3038 1543 3061 
Q 1681 3084 1819 3084 
Q 2600 3084 3056 2656 
Q 3513 2228 3513 1497 
Q 3513 744 3044 326 
Q 2575 -91 1722 -91 
Q 1428 -91 1123 -41 
Q 819 9 494 109 
L 494 744 
Q 775 591 1075 516 
Q 1375 441 1709 441 
Q 2250 441 2565 725 
Q 2881 1009 2881 1497 
Q 2881 1984 2565 2268 
Q 2250 2553 1709 2553 
Q 1456 2553 1204 2497 
Q 953 2441 691 2322 
L 691 4666 
z
" transform="scale(0.015625)"/>
       </defs>
       <use xlink:href="#DejaVuSans-35"/>
      </g>
     </g>
    </g>
    <g id="ytick_23">
     <g id="line2d_19">
      <path d="M 270.633846 118.062796 
L 316.8 118.062796 
" clip-path="url(#p0c0ac6991b)" style="fill: none; stroke: #b0b0b0; stroke-width: 0.8; stroke-linecap: square"/>
     </g>
     <g id="line2d_20">
      <g>
       <use xlink:href="#mef81f19c5c" x="270.633846" y="118.062796" style="stroke: #000000; stroke-width: 0.8"/>
      </g>
     </g>
     <g id="text_15">
      <!-- 10 -->
      <g transform="translate(250.908846 121.862014) scale(0.1 -0.1)">
       <use xlink:href="#DejaVuSans-31"/>
       <use xlink:href="#DejaVuSans-30" x="63.623047"/>
      </g>
     </g>
    </g>
    <g id="ytick_24">
     <g id="line2d_21">
      <path d="M 270.633846 76.428387 
L 316.8 76.428387 
" clip-path="url(#p0c0ac6991b)" style="fill: none; stroke: #b0b0b0; stroke-width: 0.8; stroke-linecap: square"/>
     </g>
     <g id="line2d_22">
      <g>
       <use xlink:href="#mef81f19c5c" x="270.633846" y="76.428387" style="stroke: #000000; stroke-width: 0.8"/>
      </g>
     </g>
     <g id="text_16">
      <!-- 15 -->
      <g transform="translate(250.908846 80.227606) scale(0.1 -0.1)">
       <use xlink:href="#DejaVuSans-31"/>
       <use xlink:href="#DejaVuSans-35" x="63.623047"/>
      </g>
     </g>
    </g>
    <g id="text_17">
     <!-- Intersection size -->
     <g transform="translate(244.829159 172.41315) rotate(-90) scale(0.1 -0.1)">
      <defs>
       <path id="DejaVuSans-49" d="M 628 4666 
L 1259 4666 
L 1259 0 
L 628 0 
L 628 4666 
z
" transform="scale(0.015625)"/>
       <path id="DejaVuSans-20" transform="scale(0.015625)"/>
       <path id="DejaVuSans-7a" d="M 353 3500 
L 3084 3500 
L 3084 2975 
L 922 459 
L 3084 459 
L 3084 0 
L 275 0 
L 275 525 
L 2438 3041 
L 353 3041 
L 353 3500 
z
" transform="scale(0.015625)"/>
      </defs>
      <use xlink:href="#DejaVuSans-49"/>
      <use xlink:href="#DejaVuSans-6e" x="29.492188"/>
      <use xlink:href="#DejaVuSans-74" x="92.871094"/>
      <use xlink:href="#DejaVuSans-65" x="132.080078"/>
      <use xlink:href="#DejaVuSans-72" x="193.603516"/>
      <use xlink:href="#DejaVuSans-73" x="234.716797"/>
      <use xlink:href="#DejaVuSans-65" x="286.816406"/>
      <use xlink:href="#DejaVuSans-63" x="348.339844"/>
      <use xlink:href="#DejaVuSans-74" x="403.320312"/>
      <use xlink:href="#DejaVuSans-69" x="442.529297"/>
      <use xlink:href="#DejaVuSans-6f" x="470.3125"/>
      <use xlink:href="#DejaVuSans-6e" x="531.494141"/>
      <use xlink:href="#DejaVuSans-20" x="594.873047"/>
      <use xlink:href="#DejaVuSans-73" x="626.660156"/>
      <use xlink:href="#DejaVuSans-69" x="678.759766"/>
      <use xlink:href="#DejaVuSans-7a" x="706.542969"/>
      <use xlink:href="#DejaVuSans-65" x="759.033203"/>
     </g>
    </g>
   </g>
   <g id="patch_19">
    <path d="M 270.633846 201.331613 
L 270.633846 61.44 
" style="fill: none; stroke: #000000; stroke-width: 0.8; stroke-linejoin: miter; stroke-linecap: square"/>
   </g>
   <g id="patch_20">
    <path d="M 276.404615 201.331613 
L 287.946154 201.331613 
L 287.946154 184.677849 
L 276.404615 184.677849 
z
" clip-path="url(#p0c0ac6991b)" style="stroke: #000000; stroke-linejoin: miter"/>
   </g>
   <g id="patch_21">
    <path d="M 299.487692 201.331613 
L 311.029231 201.331613 
L 311.029231 68.101505 
L 299.487692 68.101505 
z
" clip-path="url(#p0c0ac6991b)" style="stroke: #000000; stroke-linejoin: miter"/>
   </g>
  </g>
 </g>
 <defs>
  <clipPath id="p05064bae06">
   <rect x="44" y="214.049032" width="272.8" height="241.630968"/>
  </clipPath>
  <clipPath id="pe3093fa533">
   <rect x="270.633846" y="214.049032" width="46.166154" height="241.630968"/>
  </clipPath>
  <clipPath id="p7f1bbf2022">
   <rect x="44" y="214.049032" width="46.166154" height="241.630968"/>
  </clipPath>
  <clipPath id="p0c0ac6991b">
   <rect x="270.633846" y="61.44" width="46.166154" height="139.891613"/>
  </clipPath>
 </defs>
</svg>
