<?xml version="1.0" encoding="utf-8" standalone="no"?>
<!DOCTYPE svg PUBLIC "-//W3C//DTD SVG 1.1//EN"
  "http://www.w3.org/Graphics/SVG/1.1/DTD/svg11.dtd">
<svg xmlns:xlink="http://www.w3.org/1999/xlink" width="576pt" height="448pt" viewBox="0 0 576 448" xmlns="http://www.w3.org/2000/svg" version="1.1">
 <metadata>
  <rdf:RDF xmlns:dc="http://purl.org/dc/elements/1.1/" xmlns:cc="http://creativecommons.org/ns#" xmlns:rdf="http://www.w3.org/1999/02/22-rdf-syntax-ns#">
   <cc:Work>
    <dc:type rdf:resource="http://purl.org/dc/dcmitype/StillImage"/>
    <dc:date>2023-07-18T16:30:51.561332</dc:date>
    <dc:format>image/svg+xml</dc:format>
    <dc:creator>
     <cc:Agent>
      <dc:title>Matplotlib v3.7.1, https://matplotlib.org/</dc:title>
     </cc:Agent>
    </dc:creator>
   </cc:Work>
  </rdf:RDF>
 </metadata>
 <defs>
  <style type="text/css">*{stroke-linejoin: round; stroke-linecap: butt}</style>
 </defs>
 <g id="figure_1">
  <g id="patch_1">
   <path d="M 0 448 
L 576 448 
L 576 0 
L 0 0 
z
" style="fill: #ffffff"/>
  </g>
  <g id="axes_1">
   <g id="patch_2">
    <path d="M 72 390.008889 
L 518.4 390.008889 
L 518.4 371.789572 
L 72 371.789572 
z
" clip-path="url(#paf79e4b25a)" style="fill-opacity: 0.05098"/>
   </g>
   <g id="patch_3">
    <path d="M 72 344.460595 
L 518.4 344.460595 
L 518.4 326.241278 
L 72 326.241278 
z
" clip-path="url(#paf79e4b25a)" style="fill-opacity: 0.05098"/>
   </g>
   <g id="patch_4">
    <path d="M 72 298.912302 
L 518.4 298.912302 
L 518.4 280.692985 
L 72 280.692985 
z
" clip-path="url(#paf79e4b25a)" style="fill-opacity: 0.05098"/>
   </g>
   <g id="patch_5">
    <path d="M 72 253.364009 
L 518.4 253.364009 
L 518.4 235.144691 
L 72 235.144691 
z
" clip-path="url(#paf79e4b25a)" style="fill-opacity: 0.05098"/>
   </g>
   <g id="matplotlib.axis_1"/>
   <g id="matplotlib.axis_2">
    <g id="ytick_1"/>
    <g id="ytick_2"/>
    <g id="ytick_3"/>
    <g id="ytick_4"/>
    <g id="ytick_5"/>
    <g id="ytick_6"/>
    <g id="ytick_7"/>
    <g id="ytick_8"/>
   </g>
  </g>
  <g id="axes_2">
   <g id="matplotlib.axis_3">
    <g id="ytick_9">
     <g id="line2d_1"/>
     <g id="text_1">
      <!-- isa:&lt;schema.org/ListItem&gt; -->
      <g transform="translate(132.249518 384.698449) scale(0.1 -0.1)">
       <defs>
        <path id="DejaVuSans-69" d="M 603 3500 
L 1178 3500 
L 1178 0 
L 603 0 
L 603 3500 
z
M 603 4863 
L 1178 4863 
L 1178 4134 
L 603 4134 
L 603 4863 
z
" transform="scale(0.015625)"/>
        <path id="DejaVuSans-73" d="M 2834 3397 
L 2834 2853 
Q 2591 2978 2328 3040 
Q 2066 3103 1784 3103 
Q 1356 3103 1142 2972 
Q 928 2841 928 2578 
Q 928 2378 1081 2264 
Q 1234 2150 1697 2047 
L 1894 2003 
Q 2506 1872 2764 1633 
Q 3022 1394 3022 966 
Q 3022 478 2636 193 
Q 2250 -91 1575 -91 
Q 1294 -91 989 -36 
Q 684 19 347 128 
L 347 722 
Q 666 556 975 473 
Q 1284 391 1588 391 
Q 1994 391 2212 530 
Q 2431 669 2431 922 
Q 2431 1156 2273 1281 
Q 2116 1406 1581 1522 
L 1381 1569 
Q 847 1681 609 1914 
Q 372 2147 372 2553 
Q 372 3047 722 3315 
Q 1072 3584 1716 3584 
Q 2034 3584 2315 3537 
Q 2597 3491 2834 3397 
z
" transform="scale(0.015625)"/>
        <path id="DejaVuSans-61" d="M 2194 1759 
Q 1497 1759 1228 1600 
Q 959 1441 959 1056 
Q 959 750 1161 570 
Q 1363 391 1709 391 
Q 2188 391 2477 730 
Q 2766 1069 2766 1631 
L 2766 1759 
L 2194 1759 
z
M 3341 1997 
L 3341 0 
L 2766 0 
L 2766 531 
Q 2569 213 2275 61 
Q 1981 -91 1556 -91 
Q 1019 -91 701 211 
Q 384 513 384 1019 
Q 384 1609 779 1909 
Q 1175 2209 1959 2209 
L 2766 2209 
L 2766 2266 
Q 2766 2663 2505 2880 
Q 2244 3097 1772 3097 
Q 1472 3097 1187 3025 
Q 903 2953 641 2809 
L 641 3341 
Q 956 3463 1253 3523 
Q 1550 3584 1831 3584 
Q 2591 3584 2966 3190 
Q 3341 2797 3341 1997 
z
" transform="scale(0.015625)"/>
        <path id="DejaVuSans-3a" d="M 750 794 
L 1409 794 
L 1409 0 
L 750 0 
L 750 794 
z
M 750 3309 
L 1409 3309 
L 1409 2516 
L 750 2516 
L 750 3309 
z
" transform="scale(0.015625)"/>
        <path id="DejaVuSans-3c" d="M 4684 3150 
L 1459 2003 
L 4684 863 
L 4684 294 
L 678 1747 
L 678 2266 
L 4684 3719 
L 4684 3150 
z
" transform="scale(0.015625)"/>
        <path id="DejaVuSans-63" d="M 3122 3366 
L 3122 2828 
Q 2878 2963 2633 3030 
Q 2388 3097 2138 3097 
Q 1578 3097 1268 2742 
Q 959 2388 959 1747 
Q 959 1106 1268 751 
Q 1578 397 2138 397 
Q 2388 397 2633 464 
Q 2878 531 3122 666 
L 3122 134 
Q 2881 22 2623 -34 
Q 2366 -91 2075 -91 
Q 1284 -91 818 406 
Q 353 903 353 1747 
Q 353 2603 823 3093 
Q 1294 3584 2113 3584 
Q 2378 3584 2631 3529 
Q 2884 3475 3122 3366 
z
" transform="scale(0.015625)"/>
        <path id="DejaVuSans-68" d="M 3513 2113 
L 3513 0 
L 2938 0 
L 2938 2094 
Q 2938 2591 2744 2837 
Q 2550 3084 2163 3084 
Q 1697 3084 1428 2787 
Q 1159 2491 1159 1978 
L 1159 0 
L 581 0 
L 581 4863 
L 1159 4863 
L 1159 2956 
Q 1366 3272 1645 3428 
Q 1925 3584 2291 3584 
Q 2894 3584 3203 3211 
Q 3513 2838 3513 2113 
z
" transform="scale(0.015625)"/>
        <path id="DejaVuSans-65" d="M 3597 1894 
L 3597 1613 
L 953 1613 
Q 991 1019 1311 708 
Q 1631 397 2203 397 
Q 2534 397 2845 478 
Q 3156 559 3463 722 
L 3463 178 
Q 3153 47 2828 -22 
Q 2503 -91 2169 -91 
Q 1331 -91 842 396 
Q 353 884 353 1716 
Q 353 2575 817 3079 
Q 1281 3584 2069 3584 
Q 2775 3584 3186 3129 
Q 3597 2675 3597 1894 
z
M 3022 2063 
Q 3016 2534 2758 2815 
Q 2500 3097 2075 3097 
Q 1594 3097 1305 2825 
Q 1016 2553 972 2059 
L 3022 2063 
z
" transform="scale(0.015625)"/>
        <path id="DejaVuSans-6d" d="M 3328 2828 
Q 3544 3216 3844 3400 
Q 4144 3584 4550 3584 
Q 5097 3584 5394 3201 
Q 5691 2819 5691 2113 
L 5691 0 
L 5113 0 
L 5113 2094 
Q 5113 2597 4934 2840 
Q 4756 3084 4391 3084 
Q 3944 3084 3684 2787 
Q 3425 2491 3425 1978 
L 3425 0 
L 2847 0 
L 2847 2094 
Q 2847 2600 2669 2842 
Q 2491 3084 2119 3084 
Q 1678 3084 1418 2786 
Q 1159 2488 1159 1978 
L 1159 0 
L 581 0 
L 581 3500 
L 1159 3500 
L 1159 2956 
Q 1356 3278 1631 3431 
Q 1906 3584 2284 3584 
Q 2666 3584 2933 3390 
Q 3200 3197 3328 2828 
z
" transform="scale(0.015625)"/>
        <path id="DejaVuSans-2e" d="M 684 794 
L 1344 794 
L 1344 0 
L 684 0 
L 684 794 
z
" transform="scale(0.015625)"/>
        <path id="DejaVuSans-6f" d="M 1959 3097 
Q 1497 3097 1228 2736 
Q 959 2375 959 1747 
Q 959 1119 1226 758 
Q 1494 397 1959 397 
Q 2419 397 2687 759 
Q 2956 1122 2956 1747 
Q 2956 2369 2687 2733 
Q 2419 3097 1959 3097 
z
M 1959 3584 
Q 2709 3584 3137 3096 
Q 3566 2609 3566 1747 
Q 3566 888 3137 398 
Q 2709 -91 1959 -91 
Q 1206 -91 779 398 
Q 353 888 353 1747 
Q 353 2609 779 3096 
Q 1206 3584 1959 3584 
z
" transform="scale(0.015625)"/>
        <path id="DejaVuSans-72" d="M 2631 2963 
Q 2534 3019 2420 3045 
Q 2306 3072 2169 3072 
Q 1681 3072 1420 2755 
Q 1159 2438 1159 1844 
L 1159 0 
L 581 0 
L 581 3500 
L 1159 3500 
L 1159 2956 
Q 1341 3275 1631 3429 
Q 1922 3584 2338 3584 
Q 2397 3584 2469 3576 
Q 2541 3569 2628 3553 
L 2631 2963 
z
" transform="scale(0.015625)"/>
        <path id="DejaVuSans-67" d="M 2906 1791 
Q 2906 2416 2648 2759 
Q 2391 3103 1925 3103 
Q 1463 3103 1205 2759 
Q 947 2416 947 1791 
Q 947 1169 1205 825 
Q 1463 481 1925 481 
Q 2391 481 2648 825 
Q 2906 1169 2906 1791 
z
M 3481 434 
Q 3481 -459 3084 -895 
Q 2688 -1331 1869 -1331 
Q 1566 -1331 1297 -1286 
Q 1028 -1241 775 -1147 
L 775 -588 
Q 1028 -725 1275 -790 
Q 1522 -856 1778 -856 
Q 2344 -856 2625 -561 
Q 2906 -266 2906 331 
L 2906 616 
Q 2728 306 2450 153 
Q 2172 0 1784 0 
Q 1141 0 747 490 
Q 353 981 353 1791 
Q 353 2603 747 3093 
Q 1141 3584 1784 3584 
Q 2172 3584 2450 3431 
Q 2728 3278 2906 2969 
L 2906 3500 
L 3481 3500 
L 3481 434 
z
" transform="scale(0.015625)"/>
        <path id="DejaVuSans-2f" d="M 1625 4666 
L 2156 4666 
L 531 -594 
L 0 -594 
L 1625 4666 
z
" transform="scale(0.015625)"/>
        <path id="DejaVuSans-4c" d="M 628 4666 
L 1259 4666 
L 1259 531 
L 3531 531 
L 3531 0 
L 628 0 
L 628 4666 
z
" transform="scale(0.015625)"/>
        <path id="DejaVuSans-74" d="M 1172 4494 
L 1172 3500 
L 2356 3500 
L 2356 3053 
L 1172 3053 
L 1172 1153 
Q 1172 725 1289 603 
Q 1406 481 1766 481 
L 2356 481 
L 2356 0 
L 1766 0 
Q 1100 0 847 248 
Q 594 497 594 1153 
L 594 3053 
L 172 3053 
L 172 3500 
L 594 3500 
L 594 4494 
L 1172 4494 
z
" transform="scale(0.015625)"/>
        <path id="DejaVuSans-49" d="M 628 4666 
L 1259 4666 
L 1259 0 
L 628 0 
L 628 4666 
z
" transform="scale(0.015625)"/>
        <path id="DejaVuSans-3e" d="M 678 3150 
L 678 3719 
L 4684 2266 
L 4684 1747 
L 678 294 
L 678 863 
L 3897 2003 
L 678 3150 
z
" transform="scale(0.015625)"/>
       </defs>
       <use xlink:href="#DejaVuSans-69"/>
       <use xlink:href="#DejaVuSans-73" x="27.783203"/>
       <use xlink:href="#DejaVuSans-61" x="79.882812"/>
       <use xlink:href="#DejaVuSans-3a" x="141.162109"/>
       <use xlink:href="#DejaVuSans-3c" x="174.853516"/>
       <use xlink:href="#DejaVuSans-73" x="258.642578"/>
       <use xlink:href="#DejaVuSans-63" x="310.742188"/>
       <use xlink:href="#DejaVuSans-68" x="365.722656"/>
       <use xlink:href="#DejaVuSans-65" x="429.101562"/>
       <use xlink:href="#DejaVuSans-6d" x="490.625"/>
       <use xlink:href="#DejaVuSans-61" x="588.037109"/>
       <use xlink:href="#DejaVuSans-2e" x="649.316406"/>
       <use xlink:href="#DejaVuSans-6f" x="681.103516"/>
       <use xlink:href="#DejaVuSans-72" x="742.285156"/>
       <use xlink:href="#DejaVuSans-67" x="781.648438"/>
       <use xlink:href="#DejaVuSans-2f" x="845.125"/>
       <use xlink:href="#DejaVuSans-4c" x="878.816406"/>
       <use xlink:href="#DejaVuSans-69" x="934.529297"/>
       <use xlink:href="#DejaVuSans-73" x="962.3125"/>
       <use xlink:href="#DejaVuSans-74" x="1014.412109"/>
       <use xlink:href="#DejaVuSans-49" x="1053.621094"/>
       <use xlink:href="#DejaVuSans-74" x="1083.113281"/>
       <use xlink:href="#DejaVuSans-65" x="1122.322266"/>
       <use xlink:href="#DejaVuSans-6d" x="1183.845703"/>
       <use xlink:href="#DejaVuSans-3e" x="1281.257812"/>
      </g>
     </g>
    </g>
    <g id="ytick_10">
     <g id="line2d_2"/>
     <g id="text_2">
      <!-- &lt;schema.org/position&gt; -->
      <g transform="translate(150.368268 361.924302) scale(0.1 -0.1)">
       <defs>
        <path id="DejaVuSans-70" d="M 1159 525 
L 1159 -1331 
L 581 -1331 
L 581 3500 
L 1159 3500 
L 1159 2969 
Q 1341 3281 1617 3432 
Q 1894 3584 2278 3584 
Q 2916 3584 3314 3078 
Q 3713 2572 3713 1747 
Q 3713 922 3314 415 
Q 2916 -91 2278 -91 
Q 1894 -91 1617 61 
Q 1341 213 1159 525 
z
M 3116 1747 
Q 3116 2381 2855 2742 
Q 2594 3103 2138 3103 
Q 1681 3103 1420 2742 
Q 1159 2381 1159 1747 
Q 1159 1113 1420 752 
Q 1681 391 2138 391 
Q 2594 391 2855 752 
Q 3116 1113 3116 1747 
z
" transform="scale(0.015625)"/>
        <path id="DejaVuSans-6e" d="M 3513 2113 
L 3513 0 
L 2938 0 
L 2938 2094 
Q 2938 2591 2744 2837 
Q 2550 3084 2163 3084 
Q 1697 3084 1428 2787 
Q 1159 2491 1159 1978 
L 1159 0 
L 581 0 
L 581 3500 
L 1159 3500 
L 1159 2956 
Q 1366 3272 1645 3428 
Q 1925 3584 2291 3584 
Q 2894 3584 3203 3211 
Q 3513 2838 3513 2113 
z
" transform="scale(0.015625)"/>
       </defs>
       <use xlink:href="#DejaVuSans-3c"/>
       <use xlink:href="#DejaVuSans-73" x="83.789062"/>
       <use xlink:href="#DejaVuSans-63" x="135.888672"/>
       <use xlink:href="#DejaVuSans-68" x="190.869141"/>
       <use xlink:href="#DejaVuSans-65" x="254.248047"/>
       <use xlink:href="#DejaVuSans-6d" x="315.771484"/>
       <use xlink:href="#DejaVuSans-61" x="413.183594"/>
       <use xlink:href="#DejaVuSans-2e" x="474.462891"/>
       <use xlink:href="#DejaVuSans-6f" x="506.25"/>
       <use xlink:href="#DejaVuSans-72" x="567.431641"/>
       <use xlink:href="#DejaVuSans-67" x="606.794922"/>
       <use xlink:href="#DejaVuSans-2f" x="670.271484"/>
       <use xlink:href="#DejaVuSans-70" x="703.962891"/>
       <use xlink:href="#DejaVuSans-6f" x="767.439453"/>
       <use xlink:href="#DejaVuSans-73" x="828.621094"/>
       <use xlink:href="#DejaVuSans-69" x="880.720703"/>
       <use xlink:href="#DejaVuSans-74" x="908.503906"/>
       <use xlink:href="#DejaVuSans-69" x="947.712891"/>
       <use xlink:href="#DejaVuSans-6f" x="975.496094"/>
       <use xlink:href="#DejaVuSans-6e" x="1036.677734"/>
       <use xlink:href="#DejaVuSans-3e" x="1100.056641"/>
      </g>
     </g>
    </g>
    <g id="ytick_11">
     <g id="line2d_3"/>
     <g id="text_3">
      <!-- &lt;schema.org/item&gt; -->
      <g transform="translate(167.385456 339.150156) scale(0.1 -0.1)">
       <use xlink:href="#DejaVuSans-3c"/>
       <use xlink:href="#DejaVuSans-73" x="83.789062"/>
       <use xlink:href="#DejaVuSans-63" x="135.888672"/>
       <use xlink:href="#DejaVuSans-68" x="190.869141"/>
       <use xlink:href="#DejaVuSans-65" x="254.248047"/>
       <use xlink:href="#DejaVuSans-6d" x="315.771484"/>
       <use xlink:href="#DejaVuSans-61" x="413.183594"/>
       <use xlink:href="#DejaVuSans-2e" x="474.462891"/>
       <use xlink:href="#DejaVuSans-6f" x="506.25"/>
       <use xlink:href="#DejaVuSans-72" x="567.431641"/>
       <use xlink:href="#DejaVuSans-67" x="606.794922"/>
       <use xlink:href="#DejaVuSans-2f" x="670.271484"/>
       <use xlink:href="#DejaVuSans-69" x="703.962891"/>
       <use xlink:href="#DejaVuSans-74" x="731.746094"/>
       <use xlink:href="#DejaVuSans-65" x="770.955078"/>
       <use xlink:href="#DejaVuSans-6d" x="832.478516"/>
       <use xlink:href="#DejaVuSans-3e" x="929.890625"/>
      </g>
     </g>
    </g>
    <g id="ytick_12">
     <g id="line2d_4"/>
     <g id="text_4">
      <!-- &lt;schema.org/name&gt; -->
      <g transform="translate(161.618268 316.376009) scale(0.1 -0.1)">
       <use xlink:href="#DejaVuSans-3c"/>
       <use xlink:href="#DejaVuSans-73" x="83.789062"/>
       <use xlink:href="#DejaVuSans-63" x="135.888672"/>
       <use xlink:href="#DejaVuSans-68" x="190.869141"/>
       <use xlink:href="#DejaVuSans-65" x="254.248047"/>
       <use xlink:href="#DejaVuSans-6d" x="315.771484"/>
       <use xlink:href="#DejaVuSans-61" x="413.183594"/>
       <use xlink:href="#DejaVuSans-2e" x="474.462891"/>
       <use xlink:href="#DejaVuSans-6f" x="506.25"/>
       <use xlink:href="#DejaVuSans-72" x="567.431641"/>
       <use xlink:href="#DejaVuSans-67" x="606.794922"/>
       <use xlink:href="#DejaVuSans-2f" x="670.271484"/>
       <use xlink:href="#DejaVuSans-6e" x="703.962891"/>
       <use xlink:href="#DejaVuSans-61" x="767.341797"/>
       <use xlink:href="#DejaVuSans-6d" x="828.621094"/>
       <use xlink:href="#DejaVuSans-65" x="926.033203"/>
       <use xlink:href="#DejaVuSans-3e" x="987.556641"/>
      </g>
     </g>
    </g>
    <g id="ytick_13">
     <g id="line2d_5"/>
     <g id="text_5">
      <!-- &lt;schema.org/url&gt; -->
      <g transform="translate(176.751081 293.601862) scale(0.1 -0.1)">
       <defs>
        <path id="DejaVuSans-75" d="M 544 1381 
L 544 3500 
L 1119 3500 
L 1119 1403 
Q 1119 906 1312 657 
Q 1506 409 1894 409 
Q 2359 409 2629 706 
Q 2900 1003 2900 1516 
L 2900 3500 
L 3475 3500 
L 3475 0 
L 2900 0 
L 2900 538 
Q 2691 219 2414 64 
Q 2138 -91 1772 -91 
Q 1169 -91 856 284 
Q 544 659 544 1381 
z
M 1991 3584 
L 1991 3584 
z
" transform="scale(0.015625)"/>
        <path id="DejaVuSans-6c" d="M 603 4863 
L 1178 4863 
L 1178 0 
L 603 0 
L 603 4863 
z
" transform="scale(0.015625)"/>
       </defs>
       <use xlink:href="#DejaVuSans-3c"/>
       <use xlink:href="#DejaVuSans-73" x="83.789062"/>
       <use xlink:href="#DejaVuSans-63" x="135.888672"/>
       <use xlink:href="#DejaVuSans-68" x="190.869141"/>
       <use xlink:href="#DejaVuSans-65" x="254.248047"/>
       <use xlink:href="#DejaVuSans-6d" x="315.771484"/>
       <use xlink:href="#DejaVuSans-61" x="413.183594"/>
       <use xlink:href="#DejaVuSans-2e" x="474.462891"/>
       <use xlink:href="#DejaVuSans-6f" x="506.25"/>
       <use xlink:href="#DejaVuSans-72" x="567.431641"/>
       <use xlink:href="#DejaVuSans-67" x="606.794922"/>
       <use xlink:href="#DejaVuSans-2f" x="670.271484"/>
       <use xlink:href="#DejaVuSans-75" x="703.962891"/>
       <use xlink:href="#DejaVuSans-72" x="767.341797"/>
       <use xlink:href="#DejaVuSans-6c" x="808.455078"/>
       <use xlink:href="#DejaVuSans-3e" x="836.238281"/>
      </g>
     </g>
    </g>
    <g id="ytick_14">
     <g id="line2d_6"/>
     <g id="text_6">
      <!-- &lt;schema.org/previousItem&gt; -->
      <g transform="translate(124.463581 270.827715) scale(0.1 -0.1)">
       <defs>
        <path id="DejaVuSans-76" d="M 191 3500 
L 800 3500 
L 1894 563 
L 2988 3500 
L 3597 3500 
L 2284 0 
L 1503 0 
L 191 3500 
z
" transform="scale(0.015625)"/>
       </defs>
       <use xlink:href="#DejaVuSans-3c"/>
       <use xlink:href="#DejaVuSans-73" x="83.789062"/>
       <use xlink:href="#DejaVuSans-63" x="135.888672"/>
       <use xlink:href="#DejaVuSans-68" x="190.869141"/>
       <use xlink:href="#DejaVuSans-65" x="254.248047"/>
       <use xlink:href="#DejaVuSans-6d" x="315.771484"/>
       <use xlink:href="#DejaVuSans-61" x="413.183594"/>
       <use xlink:href="#DejaVuSans-2e" x="474.462891"/>
       <use xlink:href="#DejaVuSans-6f" x="506.25"/>
       <use xlink:href="#DejaVuSans-72" x="567.431641"/>
       <use xlink:href="#DejaVuSans-67" x="606.794922"/>
       <use xlink:href="#DejaVuSans-2f" x="670.271484"/>
       <use xlink:href="#DejaVuSans-70" x="703.962891"/>
       <use xlink:href="#DejaVuSans-72" x="767.439453"/>
       <use xlink:href="#DejaVuSans-65" x="806.302734"/>
       <use xlink:href="#DejaVuSans-76" x="867.826172"/>
       <use xlink:href="#DejaVuSans-69" x="927.005859"/>
       <use xlink:href="#DejaVuSans-6f" x="954.789062"/>
       <use xlink:href="#DejaVuSans-75" x="1015.970703"/>
       <use xlink:href="#DejaVuSans-73" x="1079.349609"/>
       <use xlink:href="#DejaVuSans-49" x="1131.449219"/>
       <use xlink:href="#DejaVuSans-74" x="1160.941406"/>
       <use xlink:href="#DejaVuSans-65" x="1200.150391"/>
       <use xlink:href="#DejaVuSans-6d" x="1261.673828"/>
       <use xlink:href="#DejaVuSans-3e" x="1359.085938"/>
      </g>
     </g>
    </g>
    <g id="ytick_15">
     <g id="line2d_7"/>
     <g id="text_7">
      <!-- &lt;schema.org/image&gt; -->
      <g transform="translate(158.829206 248.053569) scale(0.1 -0.1)">
       <use xlink:href="#DejaVuSans-3c"/>
       <use xlink:href="#DejaVuSans-73" x="83.789062"/>
       <use xlink:href="#DejaVuSans-63" x="135.888672"/>
       <use xlink:href="#DejaVuSans-68" x="190.869141"/>
       <use xlink:href="#DejaVuSans-65" x="254.248047"/>
       <use xlink:href="#DejaVuSans-6d" x="315.771484"/>
       <use xlink:href="#DejaVuSans-61" x="413.183594"/>
       <use xlink:href="#DejaVuSans-2e" x="474.462891"/>
       <use xlink:href="#DejaVuSans-6f" x="506.25"/>
       <use xlink:href="#DejaVuSans-72" x="567.431641"/>
       <use xlink:href="#DejaVuSans-67" x="606.794922"/>
       <use xlink:href="#DejaVuSans-2f" x="670.271484"/>
       <use xlink:href="#DejaVuSans-69" x="703.962891"/>
       <use xlink:href="#DejaVuSans-6d" x="731.746094"/>
       <use xlink:href="#DejaVuSans-61" x="829.158203"/>
       <use xlink:href="#DejaVuSans-67" x="890.4375"/>
       <use xlink:href="#DejaVuSans-65" x="953.914062"/>
       <use xlink:href="#DejaVuSans-3e" x="1015.4375"/>
      </g>
     </g>
    </g>
    <g id="ytick_16">
     <g id="line2d_8"/>
     <g id="text_8">
      <!-- &lt;schema.org/description&gt; -->
      <g transform="translate(134.376081 225.279422) scale(0.1 -0.1)">
       <defs>
        <path id="DejaVuSans-64" d="M 2906 2969 
L 2906 4863 
L 3481 4863 
L 3481 0 
L 2906 0 
L 2906 525 
Q 2725 213 2448 61 
Q 2172 -91 1784 -91 
Q 1150 -91 751 415 
Q 353 922 353 1747 
Q 353 2572 751 3078 
Q 1150 3584 1784 3584 
Q 2172 3584 2448 3432 
Q 2725 3281 2906 2969 
z
M 947 1747 
Q 947 1113 1208 752 
Q 1469 391 1925 391 
Q 2381 391 2643 752 
Q 2906 1113 2906 1747 
Q 2906 2381 2643 2742 
Q 2381 3103 1925 3103 
Q 1469 3103 1208 2742 
Q 947 2381 947 1747 
z
" transform="scale(0.015625)"/>
       </defs>
       <use xlink:href="#DejaVuSans-3c"/>
       <use xlink:href="#DejaVuSans-73" x="83.789062"/>
       <use xlink:href="#DejaVuSans-63" x="135.888672"/>
       <use xlink:href="#DejaVuSans-68" x="190.869141"/>
       <use xlink:href="#DejaVuSans-65" x="254.248047"/>
       <use xlink:href="#DejaVuSans-6d" x="315.771484"/>
       <use xlink:href="#DejaVuSans-61" x="413.183594"/>
       <use xlink:href="#DejaVuSans-2e" x="474.462891"/>
       <use xlink:href="#DejaVuSans-6f" x="506.25"/>
       <use xlink:href="#DejaVuSans-72" x="567.431641"/>
       <use xlink:href="#DejaVuSans-67" x="606.794922"/>
       <use xlink:href="#DejaVuSans-2f" x="670.271484"/>
       <use xlink:href="#DejaVuSans-64" x="703.962891"/>
       <use xlink:href="#DejaVuSans-65" x="767.439453"/>
       <use xlink:href="#DejaVuSans-73" x="828.962891"/>
       <use xlink:href="#DejaVuSans-63" x="881.0625"/>
       <use xlink:href="#DejaVuSans-72" x="936.042969"/>
       <use xlink:href="#DejaVuSans-69" x="977.15625"/>
       <use xlink:href="#DejaVuSans-70" x="1004.939453"/>
       <use xlink:href="#DejaVuSans-74" x="1068.416016"/>
       <use xlink:href="#DejaVuSans-69" x="1107.625"/>
       <use xlink:href="#DejaVuSans-6f" x="1135.408203"/>
       <use xlink:href="#DejaVuSans-6e" x="1196.589844"/>
       <use xlink:href="#DejaVuSans-3e" x="1259.96875"/>
      </g>
     </g>
    </g>
   </g>
   <g id="LineCollection_1">
    <path d="M 284.561495 380.89923 
L 284.561495 289.802643 
" clip-path="url(#p9d4af59fae)" style="fill: none; stroke: #000000; stroke-width: 2"/>
    <path d="M 309.176075 380.89923 
L 309.176075 335.350937 
" clip-path="url(#p9d4af59fae)" style="fill: none; stroke: #000000; stroke-width: 2"/>
    <path d="M 333.790654 380.89923 
L 333.790654 312.57679 
" clip-path="url(#p9d4af59fae)" style="fill: none; stroke: #000000; stroke-width: 2"/>
    <path d="M 358.405234 380.89923 
L 358.405234 289.802643 
" clip-path="url(#p9d4af59fae)" style="fill: none; stroke: #000000; stroke-width: 2"/>
    <path d="M 383.019813 380.89923 
L 383.019813 312.57679 
" clip-path="url(#p9d4af59fae)" style="fill: none; stroke: #000000; stroke-width: 2"/>
    <path d="M 407.634393 380.89923 
L 407.634393 289.802643 
" clip-path="url(#p9d4af59fae)" style="fill: none; stroke: #000000; stroke-width: 2"/>
    <path d="M 432.248972 380.89923 
L 432.248972 267.028497 
" clip-path="url(#p9d4af59fae)" style="fill: none; stroke: #000000; stroke-width: 2"/>
    <path d="M 456.863551 380.89923 
L 456.863551 244.25435 
" clip-path="url(#p9d4af59fae)" style="fill: none; stroke: #000000; stroke-width: 2"/>
    <path d="M 481.478131 380.89923 
L 481.478131 221.480203 
" clip-path="url(#p9d4af59fae)" style="fill: none; stroke: #000000; stroke-width: 2"/>
    <path d="M 506.09271 380.89923 
L 506.09271 221.480203 
" clip-path="url(#p9d4af59fae)" style="fill: none; stroke: #000000; stroke-width: 2"/>
   </g>
   <g id="PathCollection_1">
    <defs>
     <path id="C0_0_3e53a1d2ff" d="M 0 5.6 
C 1.485137 5.6 2.909647 5.009949 3.959798 3.959798 
C 5.009949 2.909647 5.6 1.485137 5.6 -0 
C 5.6 -1.485137 5.009949 -2.909647 3.959798 -3.959798 
C 2.909647 -5.009949 1.485137 -5.6 0 -5.6 
C -1.485137 -5.6 -2.909647 -5.009949 -3.959798 -3.959798 
C -5.009949 -2.909647 -5.6 -1.485137 -5.6 0 
C -5.6 1.485137 -5.009949 2.909647 -3.959798 3.959798 
C -2.909647 5.009949 -1.485137 5.6 0 5.6 
z
"/>
    </defs>
    <g clip-path="url(#p9d4af59fae)">
     <use xlink:href="#C0_0_3e53a1d2ff" x="284.561495" y="380.89923" style="stroke: #000000"/>
    </g>
    <g clip-path="url(#p9d4af59fae)">
     <use xlink:href="#C0_0_3e53a1d2ff" x="284.561495" y="358.125084" style="fill-opacity: 0.180392"/>
    </g>
    <g clip-path="url(#p9d4af59fae)">
     <use xlink:href="#C0_0_3e53a1d2ff" x="284.561495" y="335.350937" style="fill-opacity: 0.180392"/>
    </g>
    <g clip-path="url(#p9d4af59fae)">
     <use xlink:href="#C0_0_3e53a1d2ff" x="284.561495" y="312.57679" style="fill-opacity: 0.180392"/>
    </g>
    <g clip-path="url(#p9d4af59fae)">
     <use xlink:href="#C0_0_3e53a1d2ff" x="284.561495" y="289.802643" style="stroke: #000000"/>
    </g>
    <g clip-path="url(#p9d4af59fae)">
     <use xlink:href="#C0_0_3e53a1d2ff" x="284.561495" y="267.028497" style="fill-opacity: 0.180392"/>
    </g>
    <g clip-path="url(#p9d4af59fae)">
     <use xlink:href="#C0_0_3e53a1d2ff" x="284.561495" y="244.25435" style="fill-opacity: 0.180392"/>
    </g>
    <g clip-path="url(#p9d4af59fae)">
     <use xlink:href="#C0_0_3e53a1d2ff" x="284.561495" y="221.480203" style="fill-opacity: 0.180392"/>
    </g>
    <g clip-path="url(#p9d4af59fae)">
     <use xlink:href="#C0_0_3e53a1d2ff" x="309.176075" y="380.89923" style="stroke: #000000"/>
    </g>
    <g clip-path="url(#p9d4af59fae)">
     <use xlink:href="#C0_0_3e53a1d2ff" x="309.176075" y="358.125084" style="stroke: #000000"/>
    </g>
    <g clip-path="url(#p9d4af59fae)">
     <use xlink:href="#C0_0_3e53a1d2ff" x="309.176075" y="335.350937" style="stroke: #000000"/>
    </g>
    <g clip-path="url(#p9d4af59fae)">
     <use xlink:href="#C0_0_3e53a1d2ff" x="309.176075" y="312.57679" style="fill-opacity: 0.180392"/>
    </g>
    <g clip-path="url(#p9d4af59fae)">
     <use xlink:href="#C0_0_3e53a1d2ff" x="309.176075" y="289.802643" style="fill-opacity: 0.180392"/>
    </g>
    <g clip-path="url(#p9d4af59fae)">
     <use xlink:href="#C0_0_3e53a1d2ff" x="309.176075" y="267.028497" style="fill-opacity: 0.180392"/>
    </g>
    <g clip-path="url(#p9d4af59fae)">
     <use xlink:href="#C0_0_3e53a1d2ff" x="309.176075" y="244.25435" style="fill-opacity: 0.180392"/>
    </g>
    <g clip-path="url(#p9d4af59fae)">
     <use xlink:href="#C0_0_3e53a1d2ff" x="309.176075" y="221.480203" style="fill-opacity: 0.180392"/>
    </g>
    <g clip-path="url(#p9d4af59fae)">
     <use xlink:href="#C0_0_3e53a1d2ff" x="333.790654" y="380.89923" style="stroke: #000000"/>
    </g>
    <g clip-path="url(#p9d4af59fae)">
     <use xlink:href="#C0_0_3e53a1d2ff" x="333.790654" y="358.125084" style="stroke: #000000"/>
    </g>
    <g clip-path="url(#p9d4af59fae)">
     <use xlink:href="#C0_0_3e53a1d2ff" x="333.790654" y="335.350937" style="fill-opacity: 0.180392"/>
    </g>
    <g clip-path="url(#p9d4af59fae)">
     <use xlink:href="#C0_0_3e53a1d2ff" x="333.790654" y="312.57679" style="stroke: #000000"/>
    </g>
    <g clip-path="url(#p9d4af59fae)">
     <use xlink:href="#C0_0_3e53a1d2ff" x="333.790654" y="289.802643" style="fill-opacity: 0.180392"/>
    </g>
    <g clip-path="url(#p9d4af59fae)">
     <use xlink:href="#C0_0_3e53a1d2ff" x="333.790654" y="267.028497" style="fill-opacity: 0.180392"/>
    </g>
    <g clip-path="url(#p9d4af59fae)">
     <use xlink:href="#C0_0_3e53a1d2ff" x="333.790654" y="244.25435" style="fill-opacity: 0.180392"/>
    </g>
    <g clip-path="url(#p9d4af59fae)">
     <use xlink:href="#C0_0_3e53a1d2ff" x="333.790654" y="221.480203" style="fill-opacity: 0.180392"/>
    </g>
    <g clip-path="url(#p9d4af59fae)">
     <use xlink:href="#C0_0_3e53a1d2ff" x="358.405234" y="380.89923" style="stroke: #000000"/>
    </g>
    <g clip-path="url(#p9d4af59fae)">
     <use xlink:href="#C0_0_3e53a1d2ff" x="358.405234" y="358.125084" style="stroke: #000000"/>
    </g>
    <g clip-path="url(#p9d4af59fae)">
     <use xlink:href="#C0_0_3e53a1d2ff" x="358.405234" y="335.350937" style="fill-opacity: 0.180392"/>
    </g>
    <g clip-path="url(#p9d4af59fae)">
     <use xlink:href="#C0_0_3e53a1d2ff" x="358.405234" y="312.57679" style="fill-opacity: 0.180392"/>
    </g>
    <g clip-path="url(#p9d4af59fae)">
     <use xlink:href="#C0_0_3e53a1d2ff" x="358.405234" y="289.802643" style="stroke: #000000"/>
    </g>
    <g clip-path="url(#p9d4af59fae)">
     <use xlink:href="#C0_0_3e53a1d2ff" x="358.405234" y="267.028497" style="fill-opacity: 0.180392"/>
    </g>
    <g clip-path="url(#p9d4af59fae)">
     <use xlink:href="#C0_0_3e53a1d2ff" x="358.405234" y="244.25435" style="fill-opacity: 0.180392"/>
    </g>
    <g clip-path="url(#p9d4af59fae)">
     <use xlink:href="#C0_0_3e53a1d2ff" x="358.405234" y="221.480203" style="fill-opacity: 0.180392"/>
    </g>
    <g clip-path="url(#p9d4af59fae)">
     <use xlink:href="#C0_0_3e53a1d2ff" x="383.019813" y="380.89923" style="stroke: #000000"/>
    </g>
    <g clip-path="url(#p9d4af59fae)">
     <use xlink:href="#C0_0_3e53a1d2ff" x="383.019813" y="358.125084" style="stroke: #000000"/>
    </g>
    <g clip-path="url(#p9d4af59fae)">
     <use xlink:href="#C0_0_3e53a1d2ff" x="383.019813" y="335.350937" style="stroke: #000000"/>
    </g>
    <g clip-path="url(#p9d4af59fae)">
     <use xlink:href="#C0_0_3e53a1d2ff" x="383.019813" y="312.57679" style="stroke: #000000"/>
    </g>
    <g clip-path="url(#p9d4af59fae)">
     <use xlink:href="#C0_0_3e53a1d2ff" x="383.019813" y="289.802643" style="fill-opacity: 0.180392"/>
    </g>
    <g clip-path="url(#p9d4af59fae)">
     <use xlink:href="#C0_0_3e53a1d2ff" x="383.019813" y="267.028497" style="fill-opacity: 0.180392"/>
    </g>
    <g clip-path="url(#p9d4af59fae)">
     <use xlink:href="#C0_0_3e53a1d2ff" x="383.019813" y="244.25435" style="fill-opacity: 0.180392"/>
    </g>
    <g clip-path="url(#p9d4af59fae)">
     <use xlink:href="#C0_0_3e53a1d2ff" x="383.019813" y="221.480203" style="fill-opacity: 0.180392"/>
    </g>
    <g clip-path="url(#p9d4af59fae)">
     <use xlink:href="#C0_0_3e53a1d2ff" x="407.634393" y="380.89923" style="stroke: #000000"/>
    </g>
    <g clip-path="url(#p9d4af59fae)">
     <use xlink:href="#C0_0_3e53a1d2ff" x="407.634393" y="358.125084" style="stroke: #000000"/>
    </g>
    <g clip-path="url(#p9d4af59fae)">
     <use xlink:href="#C0_0_3e53a1d2ff" x="407.634393" y="335.350937" style="fill-opacity: 0.180392"/>
    </g>
    <g clip-path="url(#p9d4af59fae)">
     <use xlink:href="#C0_0_3e53a1d2ff" x="407.634393" y="312.57679" style="stroke: #000000"/>
    </g>
    <g clip-path="url(#p9d4af59fae)">
     <use xlink:href="#C0_0_3e53a1d2ff" x="407.634393" y="289.802643" style="stroke: #000000"/>
    </g>
    <g clip-path="url(#p9d4af59fae)">
     <use xlink:href="#C0_0_3e53a1d2ff" x="407.634393" y="267.028497" style="fill-opacity: 0.180392"/>
    </g>
    <g clip-path="url(#p9d4af59fae)">
     <use xlink:href="#C0_0_3e53a1d2ff" x="407.634393" y="244.25435" style="fill-opacity: 0.180392"/>
    </g>
    <g clip-path="url(#p9d4af59fae)">
     <use xlink:href="#C0_0_3e53a1d2ff" x="407.634393" y="221.480203" style="fill-opacity: 0.180392"/>
    </g>
    <g clip-path="url(#p9d4af59fae)">
     <use xlink:href="#C0_0_3e53a1d2ff" x="432.248972" y="380.89923" style="stroke: #000000"/>
    </g>
    <g clip-path="url(#p9d4af59fae)">
     <use xlink:href="#C0_0_3e53a1d2ff" x="432.248972" y="358.125084" style="stroke: #000000"/>
    </g>
    <g clip-path="url(#p9d4af59fae)">
     <use xlink:href="#C0_0_3e53a1d2ff" x="432.248972" y="335.350937" style="stroke: #000000"/>
    </g>
    <g clip-path="url(#p9d4af59fae)">
     <use xlink:href="#C0_0_3e53a1d2ff" x="432.248972" y="312.57679" style="fill-opacity: 0.180392"/>
    </g>
    <g clip-path="url(#p9d4af59fae)">
     <use xlink:href="#C0_0_3e53a1d2ff" x="432.248972" y="289.802643" style="fill-opacity: 0.180392"/>
    </g>
    <g clip-path="url(#p9d4af59fae)">
     <use xlink:href="#C0_0_3e53a1d2ff" x="432.248972" y="267.028497" style="stroke: #000000"/>
    </g>
    <g clip-path="url(#p9d4af59fae)">
     <use xlink:href="#C0_0_3e53a1d2ff" x="432.248972" y="244.25435" style="fill-opacity: 0.180392"/>
    </g>
    <g clip-path="url(#p9d4af59fae)">
     <use xlink:href="#C0_0_3e53a1d2ff" x="432.248972" y="221.480203" style="fill-opacity: 0.180392"/>
    </g>
    <g clip-path="url(#p9d4af59fae)">
     <use xlink:href="#C0_0_3e53a1d2ff" x="456.863551" y="380.89923" style="stroke: #000000"/>
    </g>
    <g clip-path="url(#p9d4af59fae)">
     <use xlink:href="#C0_0_3e53a1d2ff" x="456.863551" y="358.125084" style="stroke: #000000"/>
    </g>
    <g clip-path="url(#p9d4af59fae)">
     <use xlink:href="#C0_0_3e53a1d2ff" x="456.863551" y="335.350937" style="fill-opacity: 0.180392"/>
    </g>
    <g clip-path="url(#p9d4af59fae)">
     <use xlink:href="#C0_0_3e53a1d2ff" x="456.863551" y="312.57679" style="stroke: #000000"/>
    </g>
    <g clip-path="url(#p9d4af59fae)">
     <use xlink:href="#C0_0_3e53a1d2ff" x="456.863551" y="289.802643" style="stroke: #000000"/>
    </g>
    <g clip-path="url(#p9d4af59fae)">
     <use xlink:href="#C0_0_3e53a1d2ff" x="456.863551" y="267.028497" style="fill-opacity: 0.180392"/>
    </g>
    <g clip-path="url(#p9d4af59fae)">
     <use xlink:href="#C0_0_3e53a1d2ff" x="456.863551" y="244.25435" style="stroke: #000000"/>
    </g>
    <g clip-path="url(#p9d4af59fae)">
     <use xlink:href="#C0_0_3e53a1d2ff" x="456.863551" y="221.480203" style="fill-opacity: 0.180392"/>
    </g>
    <g clip-path="url(#p9d4af59fae)">
     <use xlink:href="#C0_0_3e53a1d2ff" x="481.478131" y="380.89923" style="stroke: #000000"/>
    </g>
    <g clip-path="url(#p9d4af59fae)">
     <use xlink:href="#C0_0_3e53a1d2ff" x="481.478131" y="358.125084" style="stroke: #000000"/>
    </g>
    <g clip-path="url(#p9d4af59fae)">
     <use xlink:href="#C0_0_3e53a1d2ff" x="481.478131" y="335.350937" style="fill-opacity: 0.180392"/>
    </g>
    <g clip-path="url(#p9d4af59fae)">
     <use xlink:href="#C0_0_3e53a1d2ff" x="481.478131" y="312.57679" style="stroke: #000000"/>
    </g>
    <g clip-path="url(#p9d4af59fae)">
     <use xlink:href="#C0_0_3e53a1d2ff" x="481.478131" y="289.802643" style="stroke: #000000"/>
    </g>
    <g clip-path="url(#p9d4af59fae)">
     <use xlink:href="#C0_0_3e53a1d2ff" x="481.478131" y="267.028497" style="fill-opacity: 0.180392"/>
    </g>
    <g clip-path="url(#p9d4af59fae)">
     <use xlink:href="#C0_0_3e53a1d2ff" x="481.478131" y="244.25435" style="fill-opacity: 0.180392"/>
    </g>
    <g clip-path="url(#p9d4af59fae)">
     <use xlink:href="#C0_0_3e53a1d2ff" x="481.478131" y="221.480203" style="stroke: #000000"/>
    </g>
    <g clip-path="url(#p9d4af59fae)">
     <use xlink:href="#C0_0_3e53a1d2ff" x="506.09271" y="380.89923" style="stroke: #000000"/>
    </g>
    <g clip-path="url(#p9d4af59fae)">
     <use xlink:href="#C0_0_3e53a1d2ff" x="506.09271" y="358.125084" style="stroke: #000000"/>
    </g>
    <g clip-path="url(#p9d4af59fae)">
     <use xlink:href="#C0_0_3e53a1d2ff" x="506.09271" y="335.350937" style="fill-opacity: 0.180392"/>
    </g>
    <g clip-path="url(#p9d4af59fae)">
     <use xlink:href="#C0_0_3e53a1d2ff" x="506.09271" y="312.57679" style="stroke: #000000"/>
    </g>
    <g clip-path="url(#p9d4af59fae)">
     <use xlink:href="#C0_0_3e53a1d2ff" x="506.09271" y="289.802643" style="stroke: #000000"/>
    </g>
    <g clip-path="url(#p9d4af59fae)">
     <use xlink:href="#C0_0_3e53a1d2ff" x="506.09271" y="267.028497" style="fill-opacity: 0.180392"/>
    </g>
    <g clip-path="url(#p9d4af59fae)">
     <use xlink:href="#C0_0_3e53a1d2ff" x="506.09271" y="244.25435" style="stroke: #000000"/>
    </g>
    <g clip-path="url(#p9d4af59fae)">
     <use xlink:href="#C0_0_3e53a1d2ff" x="506.09271" y="221.480203" style="stroke: #000000"/>
    </g>
   </g>
  </g>
  <g id="axes_3">
   <g id="patch_6">
    <path d="M 117.891589 386.592767 
L 72 386.592767 
L 72 375.205694 
L 117.891589 375.205694 
z
" clip-path="url(#p61b27af49d)"/>
   </g>
   <g id="patch_7">
    <path d="M 117.891589 363.81862 
L 72.061185 363.81862 
L 72.061185 352.431547 
L 117.891589 352.431547 
z
" clip-path="url(#p61b27af49d)"/>
   </g>
   <g id="patch_8">
    <path d="M 117.891589 341.044473 
L 81.385306 341.044473 
L 81.385306 329.6574 
L 117.891589 329.6574 
z
" clip-path="url(#p61b27af49d)"/>
   </g>
   <g id="patch_9">
    <path d="M 117.891589 318.270327 
L 97.74122 318.270327 
L 97.74122 306.883253 
L 117.891589 306.883253 
z
" clip-path="url(#p61b27af49d)"/>
   </g>
   <g id="patch_10">
    <path d="M 117.891589 295.49618 
L 114.56694 295.49618 
L 114.56694 284.109107 
L 117.891589 284.109107 
z
" clip-path="url(#p61b27af49d)"/>
   </g>
   <g id="patch_11">
    <path d="M 117.891589 272.722033 
L 117.174708 272.722033 
L 117.174708 261.33496 
L 117.891589 261.33496 
z
" clip-path="url(#p61b27af49d)"/>
   </g>
   <g id="patch_12">
    <path d="M 117.891589 249.947887 
L 117.542741 249.947887 
L 117.542741 238.560813 
L 117.891589 238.560813 
z
" clip-path="url(#p61b27af49d)"/>
   </g>
   <g id="patch_13">
    <path d="M 117.891589 227.17374 
L 117.722035 227.17374 
L 117.722035 215.786667 
L 117.891589 215.786667 
z
" clip-path="url(#p61b27af49d)"/>
   </g>
   <g id="matplotlib.axis_4">
    <g id="xtick_1">
     <g id="line2d_9">
      <path d="M 117.891589 398.72 
L 117.891589 207.075556 
" clip-path="url(#p61b27af49d)" style="fill: none; stroke: #b0b0b0; stroke-width: 0.8; stroke-linecap: square"/>
     </g>
     <g id="line2d_10">
      <defs>
       <path id="ma77eb212d2" d="M 0 0 
L 0 3.5 
" style="stroke: #000000; stroke-width: 0.8"/>
      </defs>
      <g>
       <use xlink:href="#ma77eb212d2" x="117.891589" y="398.72" style="stroke: #000000; stroke-width: 0.8"/>
      </g>
     </g>
     <g id="text_9">
      <!-- 0 -->
      <g transform="translate(114.710339 413.318437) scale(0.1 -0.1)">
       <defs>
        <path id="DejaVuSans-30" d="M 2034 4250 
Q 1547 4250 1301 3770 
Q 1056 3291 1056 2328 
Q 1056 1369 1301 889 
Q 1547 409 2034 409 
Q 2525 409 2770 889 
Q 3016 1369 3016 2328 
Q 3016 3291 2770 3770 
Q 2525 4250 2034 4250 
z
M 2034 4750 
Q 2819 4750 3233 4129 
Q 3647 3509 3647 2328 
Q 3647 1150 3233 529 
Q 2819 -91 2034 -91 
Q 1250 -91 836 529 
Q 422 1150 422 2328 
Q 422 3509 836 4129 
Q 1250 4750 2034 4750 
z
" transform="scale(0.015625)"/>
       </defs>
       <use xlink:href="#DejaVuSans-30"/>
      </g>
     </g>
    </g>
    <g id="xtick_2">
     <g id="line2d_11">
      <path d="M 84.614391 398.72 
L 84.614391 207.075556 
" clip-path="url(#p61b27af49d)" style="fill: none; stroke: #b0b0b0; stroke-width: 0.8; stroke-linecap: square"/>
     </g>
     <g id="line2d_12">
      <g>
       <use xlink:href="#ma77eb212d2" x="84.614391" y="398.72" style="stroke: #000000; stroke-width: 0.8"/>
      </g>
     </g>
     <g id="text_10">
      <!-- 1 -->
      <g transform="translate(81.433141 413.318437) scale(0.1 -0.1)">
       <defs>
        <path id="DejaVuSans-31" d="M 794 531 
L 1825 531 
L 1825 4091 
L 703 3866 
L 703 4441 
L 1819 4666 
L 2450 4666 
L 2450 531 
L 3481 531 
L 3481 0 
L 794 0 
L 794 531 
z
" transform="scale(0.015625)"/>
       </defs>
       <use xlink:href="#DejaVuSans-31"/>
      </g>
     </g>
    </g>
    <g id="text_11">
     <!-- 1e9 -->
     <g transform="translate(99.013464 425.996562) scale(0.1 -0.1)">
      <defs>
       <path id="DejaVuSans-39" d="M 703 97 
L 703 672 
Q 941 559 1184 500 
Q 1428 441 1663 441 
Q 2288 441 2617 861 
Q 2947 1281 2994 2138 
Q 2813 1869 2534 1725 
Q 2256 1581 1919 1581 
Q 1219 1581 811 2004 
Q 403 2428 403 3163 
Q 403 3881 828 4315 
Q 1253 4750 1959 4750 
Q 2769 4750 3195 4129 
Q 3622 3509 3622 2328 
Q 3622 1225 3098 567 
Q 2575 -91 1691 -91 
Q 1453 -91 1209 -44 
Q 966 3 703 97 
z
M 1959 2075 
Q 2384 2075 2632 2365 
Q 2881 2656 2881 3163 
Q 2881 3666 2632 3958 
Q 2384 4250 1959 4250 
Q 1534 4250 1286 3958 
Q 1038 3666 1038 3163 
Q 1038 2656 1286 2365 
Q 1534 2075 1959 2075 
z
" transform="scale(0.015625)"/>
      </defs>
      <use xlink:href="#DejaVuSans-31"/>
      <use xlink:href="#DejaVuSans-65" x="63.623047"/>
      <use xlink:href="#DejaVuSans-39" x="125.146484"/>
     </g>
    </g>
   </g>
   <g id="patch_14">
    <path d="M 72 398.72 
L 117.891589 398.72 
" style="fill: none; stroke: #000000; stroke-width: 0.8; stroke-linejoin: miter; stroke-linecap: square"/>
   </g>
  </g>
  <g id="axes_4">
   <g id="patch_15">
    <path d="M 272.254206 194.299259 
L 518.4 194.299259 
L 518.4 53.76 
L 272.254206 53.76 
z
" style="fill: #ffffff"/>
   </g>
   <g id="matplotlib.axis_5">
    <g id="ytick_17">
     <g id="line2d_13">
      <path d="M 272.254206 194.299259 
L 518.4 194.299259 
" clip-path="url(#p5b4c05f820)" style="fill: none; stroke: #b0b0b0; stroke-width: 0.8; stroke-linecap: square"/>
     </g>
     <g id="line2d_14">
      <defs>
       <path id="md91d0eeabc" d="M 0 0 
L -3.5 0 
" style="stroke: #000000; stroke-width: 0.8"/>
      </defs>
      <g>
       <use xlink:href="#md91d0eeabc" x="272.254206" y="194.299259" style="stroke: #000000; stroke-width: 0.8"/>
      </g>
     </g>
     <g id="text_12">
      <!-- 0 -->
      <g transform="translate(258.891706 198.098478) scale(0.1 -0.1)">
       <use xlink:href="#DejaVuSans-30"/>
      </g>
     </g>
    </g>
    <g id="ytick_18">
     <g id="line2d_15">
      <path d="M 272.254206 155.074479 
L 518.4 155.074479 
" clip-path="url(#p5b4c05f820)" style="fill: none; stroke: #b0b0b0; stroke-width: 0.8; stroke-linecap: square"/>
     </g>
     <g id="line2d_16">
      <g>
       <use xlink:href="#md91d0eeabc" x="272.254206" y="155.074479" style="stroke: #000000; stroke-width: 0.8"/>
      </g>
     </g>
     <g id="text_13">
      <!-- 2 -->
      <g transform="translate(258.891706 158.873698) scale(0.1 -0.1)">
       <defs>
        <path id="DejaVuSans-32" d="M 1228 531 
L 3431 531 
L 3431 0 
L 469 0 
L 469 531 
Q 828 903 1448 1529 
Q 2069 2156 2228 2338 
Q 2531 2678 2651 2914 
Q 2772 3150 2772 3378 
Q 2772 3750 2511 3984 
Q 2250 4219 1831 4219 
Q 1534 4219 1204 4116 
Q 875 4013 500 3803 
L 500 4441 
Q 881 4594 1212 4672 
Q 1544 4750 1819 4750 
Q 2544 4750 2975 4387 
Q 3406 4025 3406 3419 
Q 3406 3131 3298 2873 
Q 3191 2616 2906 2266 
Q 2828 2175 2409 1742 
Q 1991 1309 1228 531 
z
" transform="scale(0.015625)"/>
       </defs>
       <use xlink:href="#DejaVuSans-32"/>
      </g>
     </g>
    </g>
    <g id="ytick_19">
     <g id="line2d_17">
      <path d="M 272.254206 115.849699 
L 518.4 115.849699 
" clip-path="url(#p5b4c05f820)" style="fill: none; stroke: #b0b0b0; stroke-width: 0.8; stroke-linecap: square"/>
     </g>
     <g id="line2d_18">
      <g>
       <use xlink:href="#md91d0eeabc" x="272.254206" y="115.849699" style="stroke: #000000; stroke-width: 0.8"/>
      </g>
     </g>
     <g id="text_14">
      <!-- 4 -->
      <g transform="translate(258.891706 119.648918) scale(0.1 -0.1)">
       <defs>
        <path id="DejaVuSans-34" d="M 2419 4116 
L 825 1625 
L 2419 1625 
L 2419 4116 
z
M 2253 4666 
L 3047 4666 
L 3047 1625 
L 3713 1625 
L 3713 1100 
L 3047 1100 
L 3047 0 
L 2419 0 
L 2419 1100 
L 313 1100 
L 313 1709 
L 2253 4666 
z
" transform="scale(0.015625)"/>
       </defs>
       <use xlink:href="#DejaVuSans-34"/>
      </g>
     </g>
    </g>
    <g id="ytick_20">
     <g id="line2d_19">
      <path d="M 272.254206 76.624919 
L 518.4 76.624919 
" clip-path="url(#p5b4c05f820)" style="fill: none; stroke: #b0b0b0; stroke-width: 0.8; stroke-linecap: square"/>
     </g>
     <g id="line2d_20">
      <g>
       <use xlink:href="#md91d0eeabc" x="272.254206" y="76.624919" style="stroke: #000000; stroke-width: 0.8"/>
      </g>
     </g>
     <g id="text_15">
      <!-- 6 -->
      <g transform="translate(258.891706 80.424138) scale(0.1 -0.1)">
       <defs>
        <path id="DejaVuSans-36" d="M 2113 2584 
Q 1688 2584 1439 2293 
Q 1191 2003 1191 1497 
Q 1191 994 1439 701 
Q 1688 409 2113 409 
Q 2538 409 2786 701 
Q 3034 994 3034 1497 
Q 3034 2003 2786 2293 
Q 2538 2584 2113 2584 
z
M 3366 4563 
L 3366 3988 
Q 3128 4100 2886 4159 
Q 2644 4219 2406 4219 
Q 1781 4219 1451 3797 
Q 1122 3375 1075 2522 
Q 1259 2794 1537 2939 
Q 1816 3084 2150 3084 
Q 2853 3084 3261 2657 
Q 3669 2231 3669 1497 
Q 3669 778 3244 343 
Q 2819 -91 2113 -91 
Q 1303 -91 875 529 
Q 447 1150 447 2328 
Q 447 3434 972 4092 
Q 1497 4750 2381 4750 
Q 2619 4750 2861 4703 
Q 3103 4656 3366 4563 
z
" transform="scale(0.015625)"/>
       </defs>
       <use xlink:href="#DejaVuSans-36"/>
      </g>
     </g>
    </g>
    <g id="text_16">
     <!-- Intersection size -->
     <g transform="translate(252.812018 165.056973) rotate(-90) scale(0.1 -0.1)">
      <defs>
       <path id="DejaVuSans-20" transform="scale(0.015625)"/>
       <path id="DejaVuSans-7a" d="M 353 3500 
L 3084 3500 
L 3084 2975 
L 922 459 
L 3084 459 
L 3084 0 
L 275 0 
L 275 525 
L 2438 3041 
L 353 3041 
L 353 3500 
z
" transform="scale(0.015625)"/>
      </defs>
      <use xlink:href="#DejaVuSans-49"/>
      <use xlink:href="#DejaVuSans-6e" x="29.492188"/>
      <use xlink:href="#DejaVuSans-74" x="92.871094"/>
      <use xlink:href="#DejaVuSans-65" x="132.080078"/>
      <use xlink:href="#DejaVuSans-72" x="193.603516"/>
      <use xlink:href="#DejaVuSans-73" x="234.716797"/>
      <use xlink:href="#DejaVuSans-65" x="286.816406"/>
      <use xlink:href="#DejaVuSans-63" x="348.339844"/>
      <use xlink:href="#DejaVuSans-74" x="403.320312"/>
      <use xlink:href="#DejaVuSans-69" x="442.529297"/>
      <use xlink:href="#DejaVuSans-6f" x="470.3125"/>
      <use xlink:href="#DejaVuSans-6e" x="531.494141"/>
      <use xlink:href="#DejaVuSans-20" x="594.873047"/>
      <use xlink:href="#DejaVuSans-73" x="626.660156"/>
      <use xlink:href="#DejaVuSans-69" x="678.759766"/>
      <use xlink:href="#DejaVuSans-7a" x="706.542969"/>
      <use xlink:href="#DejaVuSans-65" x="759.033203"/>
     </g>
    </g>
    <g id="text_17">
     <!-- 1e8 -->
     <g transform="translate(272.254206 50.76) scale(0.1 -0.1)">
      <defs>
       <path id="DejaVuSans-38" d="M 2034 2216 
Q 1584 2216 1326 1975 
Q 1069 1734 1069 1313 
Q 1069 891 1326 650 
Q 1584 409 2034 409 
Q 2484 409 2743 651 
Q 3003 894 3003 1313 
Q 3003 1734 2745 1975 
Q 2488 2216 2034 2216 
z
M 1403 2484 
Q 997 2584 770 2862 
Q 544 3141 544 3541 
Q 544 4100 942 4425 
Q 1341 4750 2034 4750 
Q 2731 4750 3128 4425 
Q 3525 4100 3525 3541 
Q 3525 3141 3298 2862 
Q 3072 2584 2669 2484 
Q 3125 2378 3379 2068 
Q 3634 1759 3634 1313 
Q 3634 634 3220 271 
Q 2806 -91 2034 -91 
Q 1263 -91 848 271 
Q 434 634 434 1313 
Q 434 1759 690 2068 
Q 947 2378 1403 2484 
z
M 1172 3481 
Q 1172 3119 1398 2916 
Q 1625 2713 2034 2713 
Q 2441 2713 2670 2916 
Q 2900 3119 2900 3481 
Q 2900 3844 2670 4047 
Q 2441 4250 2034 4250 
Q 1625 4250 1398 4047 
Q 1172 3844 1172 3481 
z
" transform="scale(0.015625)"/>
      </defs>
      <use xlink:href="#DejaVuSans-31"/>
      <use xlink:href="#DejaVuSans-65" x="63.623047"/>
      <use xlink:href="#DejaVuSans-38" x="125.146484"/>
     </g>
    </g>
   </g>
   <g id="patch_16">
    <path d="M 272.254206 194.299259 
L 272.254206 53.76 
" style="fill: none; stroke: #000000; stroke-width: 0.8; stroke-linejoin: miter; stroke-linecap: square"/>
   </g>
   <g id="patch_17">
    <path d="M 278.40785 194.299259 
L 290.71514 194.299259 
L 290.71514 193.938656 
L 278.40785 193.938656 
z
" clip-path="url(#p5b4c05f820)" style="stroke: #000000; stroke-linejoin: miter"/>
   </g>
   <g id="patch_18">
    <path d="M 303.02243 194.299259 
L 315.32972 194.299259 
L 315.32972 60.452346 
L 303.02243 60.452346 
z
" clip-path="url(#p5b4c05f820)" style="stroke: #000000; stroke-linejoin: miter"/>
   </g>
   <g id="patch_19">
    <path d="M 327.637009 194.299259 
L 339.944299 194.299259 
L 339.944299 158.579919 
L 327.637009 158.579919 
z
" clip-path="url(#p5b4c05f820)" style="stroke: #000000; stroke-linejoin: miter"/>
   </g>
   <g id="patch_20">
    <path d="M 352.251589 194.299259 
L 364.558879 194.299259 
L 364.558879 181.022272 
L 352.251589 181.022272 
z
" clip-path="url(#p5b4c05f820)" style="stroke: #000000; stroke-linejoin: miter"/>
   </g>
   <g id="patch_21">
    <path d="M 376.866168 194.299259 
L 389.173458 194.299259 
L 389.173458 117.216237 
L 376.866168 117.216237 
z
" clip-path="url(#p5b4c05f820)" style="stroke: #000000; stroke-linejoin: miter"/>
   </g>
   <g id="patch_22">
    <path d="M 401.480748 194.299259 
L 413.788037 194.299259 
L 413.788037 191.024334 
L 401.480748 191.024334 
z
" clip-path="url(#p5b4c05f820)" style="stroke: #000000; stroke-linejoin: miter"/>
   </g>
   <g id="patch_23">
    <path d="M 426.095327 194.299259 
L 438.402617 194.299259 
L 438.402617 190.074221 
L 426.095327 190.074221 
z
" clip-path="url(#p5b4c05f820)" style="stroke: #000000; stroke-linejoin: miter"/>
   </g>
   <g id="patch_24">
    <path d="M 450.709907 194.299259 
L 463.017196 194.299259 
L 463.017196 192.616771 
L 450.709907 192.616771 
z
" clip-path="url(#p5b4c05f820)" style="stroke: #000000; stroke-linejoin: miter"/>
   </g>
   <g id="patch_25">
    <path d="M 475.324486 194.299259 
L 487.631776 194.299259 
L 487.631776 193.673467 
L 475.324486 193.673467 
z
" clip-path="url(#p5b4c05f820)" style="stroke: #000000; stroke-linejoin: miter"/>
   </g>
   <g id="patch_26">
    <path d="M 499.939065 194.299259 
L 512.246355 194.299259 
L 512.246355 193.925763 
L 499.939065 193.925763 
z
" clip-path="url(#p5b4c05f820)" style="stroke: #000000; stroke-linejoin: miter"/>
   </g>
  </g>
 </g>
 <defs>
  <clipPath id="paf79e4b25a">
   <rect x="72" y="207.075556" width="446.4" height="191.644444"/>
  </clipPath>
  <clipPath id="p9d4af59fae">
   <rect x="272.254206" y="207.075556" width="246.145794" height="191.644444"/>
  </clipPath>
  <clipPath id="p61b27af49d">
   <rect x="72" y="207.075556" width="45.891589" height="191.644444"/>
  </clipPath>
  <clipPath id="p5b4c05f820">
   <rect x="272.254206" y="53.76" width="246.145794" height="140.539259"/>
  </clipPath>
 </defs>
</svg>
