<?xml version="1.0" encoding="utf-8" standalone="no"?>
<!DOCTYPE svg PUBLIC "-//W3C//DTD SVG 1.1//EN"
  "http://www.w3.org/Graphics/SVG/1.1/DTD/svg11.dtd">
<svg xmlns:xlink="http://www.w3.org/1999/xlink" width="544pt" height="384pt" viewBox="0 0 544 384" xmlns="http://www.w3.org/2000/svg" version="1.1">
 <metadata>
  <rdf:RDF xmlns:dc="http://purl.org/dc/elements/1.1/" xmlns:cc="http://creativecommons.org/ns#" xmlns:rdf="http://www.w3.org/1999/02/22-rdf-syntax-ns#">
   <cc:Work>
    <dc:type rdf:resource="http://purl.org/dc/dcmitype/StillImage"/>
    <dc:date>2023-07-18T16:35:05.664562</dc:date>
    <dc:format>image/svg+xml</dc:format>
    <dc:creator>
     <cc:Agent>
      <dc:title>Matplotlib v3.7.1, https://matplotlib.org/</dc:title>
     </cc:Agent>
    </dc:creator>
   </cc:Work>
  </rdf:RDF>
 </metadata>
 <defs>
  <style type="text/css">*{stroke-linejoin: round; stroke-linecap: butt}</style>
 </defs>
 <g id="figure_1">
  <g id="patch_1">
   <path d="M 0 384 
L 544 384 
L 544 0 
L 0 0 
z
" style="fill: #ffffff"/>
  </g>
  <g id="axes_1">
   <g id="patch_2">
    <path d="M 68 335.332174 
L 489.6 335.332174 
L 489.6 317.129481 
L 68 317.129481 
z
" clip-path="url(#p149e1aad30)" style="fill-opacity: 0.05098"/>
   </g>
   <g id="patch_3">
    <path d="M 68 289.825441 
L 489.6 289.825441 
L 489.6 271.622747 
L 68 271.622747 
z
" clip-path="url(#p149e1aad30)" style="fill-opacity: 0.05098"/>
   </g>
   <g id="patch_4">
    <path d="M 68 244.318707 
L 489.6 244.318707 
L 489.6 226.116014 
L 68 226.116014 
z
" clip-path="url(#p149e1aad30)" style="fill-opacity: 0.05098"/>
   </g>
   <g id="matplotlib.axis_1"/>
   <g id="matplotlib.axis_2">
    <g id="ytick_1"/>
    <g id="ytick_2"/>
    <g id="ytick_3"/>
    <g id="ytick_4"/>
    <g id="ytick_5"/>
    <g id="ytick_6"/>
   </g>
  </g>
  <g id="axes_2">
   <g id="matplotlib.axis_3">
    <g id="ytick_7">
     <g id="line2d_1"/>
     <g id="text_1">
      <!-- isa:&lt;schema.org/RepaymentSpecification&gt; -->
      <g transform="translate(97.289821 330.030046) scale(0.1 -0.1)">
       <defs>
        <path id="DejaVuSans-69" d="M 603 3500 
L 1178 3500 
L 1178 0 
L 603 0 
L 603 3500 
z
M 603 4863 
L 1178 4863 
L 1178 4134 
L 603 4134 
L 603 4863 
z
" transform="scale(0.015625)"/>
        <path id="DejaVuSans-73" d="M 2834 3397 
L 2834 2853 
Q 2591 2978 2328 3040 
Q 2066 3103 1784 3103 
Q 1356 3103 1142 2972 
Q 928 2841 928 2578 
Q 928 2378 1081 2264 
Q 1234 2150 1697 2047 
L 1894 2003 
Q 2506 1872 2764 1633 
Q 3022 1394 3022 966 
Q 3022 478 2636 193 
Q 2250 -91 1575 -91 
Q 1294 -91 989 -36 
Q 684 19 347 128 
L 347 722 
Q 666 556 975 473 
Q 1284 391 1588 391 
Q 1994 391 2212 530 
Q 2431 669 2431 922 
Q 2431 1156 2273 1281 
Q 2116 1406 1581 1522 
L 1381 1569 
Q 847 1681 609 1914 
Q 372 2147 372 2553 
Q 372 3047 722 3315 
Q 1072 3584 1716 3584 
Q 2034 3584 2315 3537 
Q 2597 3491 2834 3397 
z
" transform="scale(0.015625)"/>
        <path id="DejaVuSans-61" d="M 2194 1759 
Q 1497 1759 1228 1600 
Q 959 1441 959 1056 
Q 959 750 1161 570 
Q 1363 391 1709 391 
Q 2188 391 2477 730 
Q 2766 1069 2766 1631 
L 2766 1759 
L 2194 1759 
z
M 3341 1997 
L 3341 0 
L 2766 0 
L 2766 531 
Q 2569 213 2275 61 
Q 1981 -91 1556 -91 
Q 1019 -91 701 211 
Q 384 513 384 1019 
Q 384 1609 779 1909 
Q 1175 2209 1959 2209 
L 2766 2209 
L 2766 2266 
Q 2766 2663 2505 2880 
Q 2244 3097 1772 3097 
Q 1472 3097 1187 3025 
Q 903 2953 641 2809 
L 641 3341 
Q 956 3463 1253 3523 
Q 1550 3584 1831 3584 
Q 2591 3584 2966 3190 
Q 3341 2797 3341 1997 
z
" transform="scale(0.015625)"/>
        <path id="DejaVuSans-3a" d="M 750 794 
L 1409 794 
L 1409 0 
L 750 0 
L 750 794 
z
M 750 3309 
L 1409 3309 
L 1409 2516 
L 750 2516 
L 750 3309 
z
" transform="scale(0.015625)"/>
        <path id="DejaVuSans-3c" d="M 4684 3150 
L 1459 2003 
L 4684 863 
L 4684 294 
L 678 1747 
L 678 2266 
L 4684 3719 
L 4684 3150 
z
" transform="scale(0.015625)"/>
        <path id="DejaVuSans-63" d="M 3122 3366 
L 3122 2828 
Q 2878 2963 2633 3030 
Q 2388 3097 2138 3097 
Q 1578 3097 1268 2742 
Q 959 2388 959 1747 
Q 959 1106 1268 751 
Q 1578 397 2138 397 
Q 2388 397 2633 464 
Q 2878 531 3122 666 
L 3122 134 
Q 2881 22 2623 -34 
Q 2366 -91 2075 -91 
Q 1284 -91 818 406 
Q 353 903 353 1747 
Q 353 2603 823 3093 
Q 1294 3584 2113 3584 
Q 2378 3584 2631 3529 
Q 2884 3475 3122 3366 
z
" transform="scale(0.015625)"/>
        <path id="DejaVuSans-68" d="M 3513 2113 
L 3513 0 
L 2938 0 
L 2938 2094 
Q 2938 2591 2744 2837 
Q 2550 3084 2163 3084 
Q 1697 3084 1428 2787 
Q 1159 2491 1159 1978 
L 1159 0 
L 581 0 
L 581 4863 
L 1159 4863 
L 1159 2956 
Q 1366 3272 1645 3428 
Q 1925 3584 2291 3584 
Q 2894 3584 3203 3211 
Q 3513 2838 3513 2113 
z
" transform="scale(0.015625)"/>
        <path id="DejaVuSans-65" d="M 3597 1894 
L 3597 1613 
L 953 1613 
Q 991 1019 1311 708 
Q 1631 397 2203 397 
Q 2534 397 2845 478 
Q 3156 559 3463 722 
L 3463 178 
Q 3153 47 2828 -22 
Q 2503 -91 2169 -91 
Q 1331 -91 842 396 
Q 353 884 353 1716 
Q 353 2575 817 3079 
Q 1281 3584 2069 3584 
Q 2775 3584 3186 3129 
Q 3597 2675 3597 1894 
z
M 3022 2063 
Q 3016 2534 2758 2815 
Q 2500 3097 2075 3097 
Q 1594 3097 1305 2825 
Q 1016 2553 972 2059 
L 3022 2063 
z
" transform="scale(0.015625)"/>
        <path id="DejaVuSans-6d" d="M 3328 2828 
Q 3544 3216 3844 3400 
Q 4144 3584 4550 3584 
Q 5097 3584 5394 3201 
Q 5691 2819 5691 2113 
L 5691 0 
L 5113 0 
L 5113 2094 
Q 5113 2597 4934 2840 
Q 4756 3084 4391 3084 
Q 3944 3084 3684 2787 
Q 3425 2491 3425 1978 
L 3425 0 
L 2847 0 
L 2847 2094 
Q 2847 2600 2669 2842 
Q 2491 3084 2119 3084 
Q 1678 3084 1418 2786 
Q 1159 2488 1159 1978 
L 1159 0 
L 581 0 
L 581 3500 
L 1159 3500 
L 1159 2956 
Q 1356 3278 1631 3431 
Q 1906 3584 2284 3584 
Q 2666 3584 2933 3390 
Q 3200 3197 3328 2828 
z
" transform="scale(0.015625)"/>
        <path id="DejaVuSans-2e" d="M 684 794 
L 1344 794 
L 1344 0 
L 684 0 
L 684 794 
z
" transform="scale(0.015625)"/>
        <path id="DejaVuSans-6f" d="M 1959 3097 
Q 1497 3097 1228 2736 
Q 959 2375 959 1747 
Q 959 1119 1226 758 
Q 1494 397 1959 397 
Q 2419 397 2687 759 
Q 2956 1122 2956 1747 
Q 2956 2369 2687 2733 
Q 2419 3097 1959 3097 
z
M 1959 3584 
Q 2709 3584 3137 3096 
Q 3566 2609 3566 1747 
Q 3566 888 3137 398 
Q 2709 -91 1959 -91 
Q 1206 -91 779 398 
Q 353 888 353 1747 
Q 353 2609 779 3096 
Q 1206 3584 1959 3584 
z
" transform="scale(0.015625)"/>
        <path id="DejaVuSans-72" d="M 2631 2963 
Q 2534 3019 2420 3045 
Q 2306 3072 2169 3072 
Q 1681 3072 1420 2755 
Q 1159 2438 1159 1844 
L 1159 0 
L 581 0 
L 581 3500 
L 1159 3500 
L 1159 2956 
Q 1341 3275 1631 3429 
Q 1922 3584 2338 3584 
Q 2397 3584 2469 3576 
Q 2541 3569 2628 3553 
L 2631 2963 
z
" transform="scale(0.015625)"/>
        <path id="DejaVuSans-67" d="M 2906 1791 
Q 2906 2416 2648 2759 
Q 2391 3103 1925 3103 
Q 1463 3103 1205 2759 
Q 947 2416 947 1791 
Q 947 1169 1205 825 
Q 1463 481 1925 481 
Q 2391 481 2648 825 
Q 2906 1169 2906 1791 
z
M 3481 434 
Q 3481 -459 3084 -895 
Q 2688 -1331 1869 -1331 
Q 1566 -1331 1297 -1286 
Q 1028 -1241 775 -1147 
L 775 -588 
Q 1028 -725 1275 -790 
Q 1522 -856 1778 -856 
Q 2344 -856 2625 -561 
Q 2906 -266 2906 331 
L 2906 616 
Q 2728 306 2450 153 
Q 2172 0 1784 0 
Q 1141 0 747 490 
Q 353 981 353 1791 
Q 353 2603 747 3093 
Q 1141 3584 1784 3584 
Q 2172 3584 2450 3431 
Q 2728 3278 2906 2969 
L 2906 3500 
L 3481 3500 
L 3481 434 
z
" transform="scale(0.015625)"/>
        <path id="DejaVuSans-2f" d="M 1625 4666 
L 2156 4666 
L 531 -594 
L 0 -594 
L 1625 4666 
z
" transform="scale(0.015625)"/>
        <path id="DejaVuSans-52" d="M 2841 2188 
Q 3044 2119 3236 1894 
Q 3428 1669 3622 1275 
L 4263 0 
L 3584 0 
L 2988 1197 
Q 2756 1666 2539 1819 
Q 2322 1972 1947 1972 
L 1259 1972 
L 1259 0 
L 628 0 
L 628 4666 
L 2053 4666 
Q 2853 4666 3247 4331 
Q 3641 3997 3641 3322 
Q 3641 2881 3436 2590 
Q 3231 2300 2841 2188 
z
M 1259 4147 
L 1259 2491 
L 2053 2491 
Q 2509 2491 2742 2702 
Q 2975 2913 2975 3322 
Q 2975 3731 2742 3939 
Q 2509 4147 2053 4147 
L 1259 4147 
z
" transform="scale(0.015625)"/>
        <path id="DejaVuSans-70" d="M 1159 525 
L 1159 -1331 
L 581 -1331 
L 581 3500 
L 1159 3500 
L 1159 2969 
Q 1341 3281 1617 3432 
Q 1894 3584 2278 3584 
Q 2916 3584 3314 3078 
Q 3713 2572 3713 1747 
Q 3713 922 3314 415 
Q 2916 -91 2278 -91 
Q 1894 -91 1617 61 
Q 1341 213 1159 525 
z
M 3116 1747 
Q 3116 2381 2855 2742 
Q 2594 3103 2138 3103 
Q 1681 3103 1420 2742 
Q 1159 2381 1159 1747 
Q 1159 1113 1420 752 
Q 1681 391 2138 391 
Q 2594 391 2855 752 
Q 3116 1113 3116 1747 
z
" transform="scale(0.015625)"/>
        <path id="DejaVuSans-79" d="M 2059 -325 
Q 1816 -950 1584 -1140 
Q 1353 -1331 966 -1331 
L 506 -1331 
L 506 -850 
L 844 -850 
Q 1081 -850 1212 -737 
Q 1344 -625 1503 -206 
L 1606 56 
L 191 3500 
L 800 3500 
L 1894 763 
L 2988 3500 
L 3597 3500 
L 2059 -325 
z
" transform="scale(0.015625)"/>
        <path id="DejaVuSans-6e" d="M 3513 2113 
L 3513 0 
L 2938 0 
L 2938 2094 
Q 2938 2591 2744 2837 
Q 2550 3084 2163 3084 
Q 1697 3084 1428 2787 
Q 1159 2491 1159 1978 
L 1159 0 
L 581 0 
L 581 3500 
L 1159 3500 
L 1159 2956 
Q 1366 3272 1645 3428 
Q 1925 3584 2291 3584 
Q 2894 3584 3203 3211 
Q 3513 2838 3513 2113 
z
" transform="scale(0.015625)"/>
        <path id="DejaVuSans-74" d="M 1172 4494 
L 1172 3500 
L 2356 3500 
L 2356 3053 
L 1172 3053 
L 1172 1153 
Q 1172 725 1289 603 
Q 1406 481 1766 481 
L 2356 481 
L 2356 0 
L 1766 0 
Q 1100 0 847 248 
Q 594 497 594 1153 
L 594 3053 
L 172 3053 
L 172 3500 
L 594 3500 
L 594 4494 
L 1172 4494 
z
" transform="scale(0.015625)"/>
        <path id="DejaVuSans-53" d="M 3425 4513 
L 3425 3897 
Q 3066 4069 2747 4153 
Q 2428 4238 2131 4238 
Q 1616 4238 1336 4038 
Q 1056 3838 1056 3469 
Q 1056 3159 1242 3001 
Q 1428 2844 1947 2747 
L 2328 2669 
Q 3034 2534 3370 2195 
Q 3706 1856 3706 1288 
Q 3706 609 3251 259 
Q 2797 -91 1919 -91 
Q 1588 -91 1214 -16 
Q 841 59 441 206 
L 441 856 
Q 825 641 1194 531 
Q 1563 422 1919 422 
Q 2459 422 2753 634 
Q 3047 847 3047 1241 
Q 3047 1584 2836 1778 
Q 2625 1972 2144 2069 
L 1759 2144 
Q 1053 2284 737 2584 
Q 422 2884 422 3419 
Q 422 4038 858 4394 
Q 1294 4750 2059 4750 
Q 2388 4750 2728 4690 
Q 3069 4631 3425 4513 
z
" transform="scale(0.015625)"/>
        <path id="DejaVuSans-66" d="M 2375 4863 
L 2375 4384 
L 1825 4384 
Q 1516 4384 1395 4259 
Q 1275 4134 1275 3809 
L 1275 3500 
L 2222 3500 
L 2222 3053 
L 1275 3053 
L 1275 0 
L 697 0 
L 697 3053 
L 147 3053 
L 147 3500 
L 697 3500 
L 697 3744 
Q 697 4328 969 4595 
Q 1241 4863 1831 4863 
L 2375 4863 
z
" transform="scale(0.015625)"/>
        <path id="DejaVuSans-3e" d="M 678 3150 
L 678 3719 
L 4684 2266 
L 4684 1747 
L 678 294 
L 678 863 
L 3897 2003 
L 678 3150 
z
" transform="scale(0.015625)"/>
       </defs>
       <use xlink:href="#DejaVuSans-69"/>
       <use xlink:href="#DejaVuSans-73" x="27.783203"/>
       <use xlink:href="#DejaVuSans-61" x="79.882812"/>
       <use xlink:href="#DejaVuSans-3a" x="141.162109"/>
       <use xlink:href="#DejaVuSans-3c" x="174.853516"/>
       <use xlink:href="#DejaVuSans-73" x="258.642578"/>
       <use xlink:href="#DejaVuSans-63" x="310.742188"/>
       <use xlink:href="#DejaVuSans-68" x="365.722656"/>
       <use xlink:href="#DejaVuSans-65" x="429.101562"/>
       <use xlink:href="#DejaVuSans-6d" x="490.625"/>
       <use xlink:href="#DejaVuSans-61" x="588.037109"/>
       <use xlink:href="#DejaVuSans-2e" x="649.316406"/>
       <use xlink:href="#DejaVuSans-6f" x="681.103516"/>
       <use xlink:href="#DejaVuSans-72" x="742.285156"/>
       <use xlink:href="#DejaVuSans-67" x="781.648438"/>
       <use xlink:href="#DejaVuSans-2f" x="845.125"/>
       <use xlink:href="#DejaVuSans-52" x="878.816406"/>
       <use xlink:href="#DejaVuSans-65" x="943.798828"/>
       <use xlink:href="#DejaVuSans-70" x="1005.322266"/>
       <use xlink:href="#DejaVuSans-61" x="1068.798828"/>
       <use xlink:href="#DejaVuSans-79" x="1130.078125"/>
       <use xlink:href="#DejaVuSans-6d" x="1189.257812"/>
       <use xlink:href="#DejaVuSans-65" x="1286.669922"/>
       <use xlink:href="#DejaVuSans-6e" x="1348.193359"/>
       <use xlink:href="#DejaVuSans-74" x="1411.572266"/>
       <use xlink:href="#DejaVuSans-53" x="1450.78125"/>
       <use xlink:href="#DejaVuSans-70" x="1514.257812"/>
       <use xlink:href="#DejaVuSans-65" x="1577.734375"/>
       <use xlink:href="#DejaVuSans-63" x="1639.257812"/>
       <use xlink:href="#DejaVuSans-69" x="1694.238281"/>
       <use xlink:href="#DejaVuSans-66" x="1722.021484"/>
       <use xlink:href="#DejaVuSans-69" x="1757.226562"/>
       <use xlink:href="#DejaVuSans-63" x="1785.009766"/>
       <use xlink:href="#DejaVuSans-61" x="1839.990234"/>
       <use xlink:href="#DejaVuSans-74" x="1901.269531"/>
       <use xlink:href="#DejaVuSans-69" x="1940.478516"/>
       <use xlink:href="#DejaVuSans-6f" x="1968.261719"/>
       <use xlink:href="#DejaVuSans-6e" x="2029.443359"/>
       <use xlink:href="#DejaVuSans-3e" x="2092.822266"/>
      </g>
     </g>
    </g>
    <g id="ytick_8">
     <g id="line2d_2"/>
     <g id="text_2">
      <!-- &lt;schema.org/loanPaymentFrequency&gt; -->
      <g transform="translate(119.378883 307.276679) scale(0.1 -0.1)">
       <defs>
        <path id="DejaVuSans-6c" d="M 603 4863 
L 1178 4863 
L 1178 0 
L 603 0 
L 603 4863 
z
" transform="scale(0.015625)"/>
        <path id="DejaVuSans-50" d="M 1259 4147 
L 1259 2394 
L 2053 2394 
Q 2494 2394 2734 2622 
Q 2975 2850 2975 3272 
Q 2975 3691 2734 3919 
Q 2494 4147 2053 4147 
L 1259 4147 
z
M 628 4666 
L 2053 4666 
Q 2838 4666 3239 4311 
Q 3641 3956 3641 3272 
Q 3641 2581 3239 2228 
Q 2838 1875 2053 1875 
L 1259 1875 
L 1259 0 
L 628 0 
L 628 4666 
z
" transform="scale(0.015625)"/>
        <path id="DejaVuSans-46" d="M 628 4666 
L 3309 4666 
L 3309 4134 
L 1259 4134 
L 1259 2759 
L 3109 2759 
L 3109 2228 
L 1259 2228 
L 1259 0 
L 628 0 
L 628 4666 
z
" transform="scale(0.015625)"/>
        <path id="DejaVuSans-71" d="M 947 1747 
Q 947 1113 1208 752 
Q 1469 391 1925 391 
Q 2381 391 2643 752 
Q 2906 1113 2906 1747 
Q 2906 2381 2643 2742 
Q 2381 3103 1925 3103 
Q 1469 3103 1208 2742 
Q 947 2381 947 1747 
z
M 2906 525 
Q 2725 213 2448 61 
Q 2172 -91 1784 -91 
Q 1150 -91 751 415 
Q 353 922 353 1747 
Q 353 2572 751 3078 
Q 1150 3584 1784 3584 
Q 2172 3584 2448 3432 
Q 2725 3281 2906 2969 
L 2906 3500 
L 3481 3500 
L 3481 -1331 
L 2906 -1331 
L 2906 525 
z
" transform="scale(0.015625)"/>
        <path id="DejaVuSans-75" d="M 544 1381 
L 544 3500 
L 1119 3500 
L 1119 1403 
Q 1119 906 1312 657 
Q 1506 409 1894 409 
Q 2359 409 2629 706 
Q 2900 1003 2900 1516 
L 2900 3500 
L 3475 3500 
L 3475 0 
L 2900 0 
L 2900 538 
Q 2691 219 2414 64 
Q 2138 -91 1772 -91 
Q 1169 -91 856 284 
Q 544 659 544 1381 
z
M 1991 3584 
L 1991 3584 
z
" transform="scale(0.015625)"/>
       </defs>
       <use xlink:href="#DejaVuSans-3c"/>
       <use xlink:href="#DejaVuSans-73" x="83.789062"/>
       <use xlink:href="#DejaVuSans-63" x="135.888672"/>
       <use xlink:href="#DejaVuSans-68" x="190.869141"/>
       <use xlink:href="#DejaVuSans-65" x="254.248047"/>
       <use xlink:href="#DejaVuSans-6d" x="315.771484"/>
       <use xlink:href="#DejaVuSans-61" x="413.183594"/>
       <use xlink:href="#DejaVuSans-2e" x="474.462891"/>
       <use xlink:href="#DejaVuSans-6f" x="506.25"/>
       <use xlink:href="#DejaVuSans-72" x="567.431641"/>
       <use xlink:href="#DejaVuSans-67" x="606.794922"/>
       <use xlink:href="#DejaVuSans-2f" x="670.271484"/>
       <use xlink:href="#DejaVuSans-6c" x="703.962891"/>
       <use xlink:href="#DejaVuSans-6f" x="731.746094"/>
       <use xlink:href="#DejaVuSans-61" x="792.927734"/>
       <use xlink:href="#DejaVuSans-6e" x="854.207031"/>
       <use xlink:href="#DejaVuSans-50" x="917.585938"/>
       <use xlink:href="#DejaVuSans-61" x="973.388672"/>
       <use xlink:href="#DejaVuSans-79" x="1034.667969"/>
       <use xlink:href="#DejaVuSans-6d" x="1093.847656"/>
       <use xlink:href="#DejaVuSans-65" x="1191.259766"/>
       <use xlink:href="#DejaVuSans-6e" x="1252.783203"/>
       <use xlink:href="#DejaVuSans-74" x="1316.162109"/>
       <use xlink:href="#DejaVuSans-46" x="1355.371094"/>
       <use xlink:href="#DejaVuSans-72" x="1405.640625"/>
       <use xlink:href="#DejaVuSans-65" x="1444.503906"/>
       <use xlink:href="#DejaVuSans-71" x="1506.027344"/>
       <use xlink:href="#DejaVuSans-75" x="1569.503906"/>
       <use xlink:href="#DejaVuSans-65" x="1632.882812"/>
       <use xlink:href="#DejaVuSans-6e" x="1694.40625"/>
       <use xlink:href="#DejaVuSans-63" x="1757.785156"/>
       <use xlink:href="#DejaVuSans-79" x="1812.765625"/>
       <use xlink:href="#DejaVuSans-3e" x="1871.945312"/>
      </g>
     </g>
    </g>
    <g id="ytick_9">
     <g id="line2d_3"/>
     <g id="text_3">
      <!-- &lt;schema.org/numberOfLoanPayments&gt; -->
      <g transform="translate(112.789821 284.523313) scale(0.1 -0.1)">
       <defs>
        <path id="DejaVuSans-62" d="M 3116 1747 
Q 3116 2381 2855 2742 
Q 2594 3103 2138 3103 
Q 1681 3103 1420 2742 
Q 1159 2381 1159 1747 
Q 1159 1113 1420 752 
Q 1681 391 2138 391 
Q 2594 391 2855 752 
Q 3116 1113 3116 1747 
z
M 1159 2969 
Q 1341 3281 1617 3432 
Q 1894 3584 2278 3584 
Q 2916 3584 3314 3078 
Q 3713 2572 3713 1747 
Q 3713 922 3314 415 
Q 2916 -91 2278 -91 
Q 1894 -91 1617 61 
Q 1341 213 1159 525 
L 1159 0 
L 581 0 
L 581 4863 
L 1159 4863 
L 1159 2969 
z
" transform="scale(0.015625)"/>
        <path id="DejaVuSans-4f" d="M 2522 4238 
Q 1834 4238 1429 3725 
Q 1025 3213 1025 2328 
Q 1025 1447 1429 934 
Q 1834 422 2522 422 
Q 3209 422 3611 934 
Q 4013 1447 4013 2328 
Q 4013 3213 3611 3725 
Q 3209 4238 2522 4238 
z
M 2522 4750 
Q 3503 4750 4090 4092 
Q 4678 3434 4678 2328 
Q 4678 1225 4090 567 
Q 3503 -91 2522 -91 
Q 1538 -91 948 565 
Q 359 1222 359 2328 
Q 359 3434 948 4092 
Q 1538 4750 2522 4750 
z
" transform="scale(0.015625)"/>
        <path id="DejaVuSans-4c" d="M 628 4666 
L 1259 4666 
L 1259 531 
L 3531 531 
L 3531 0 
L 628 0 
L 628 4666 
z
" transform="scale(0.015625)"/>
       </defs>
       <use xlink:href="#DejaVuSans-3c"/>
       <use xlink:href="#DejaVuSans-73" x="83.789062"/>
       <use xlink:href="#DejaVuSans-63" x="135.888672"/>
       <use xlink:href="#DejaVuSans-68" x="190.869141"/>
       <use xlink:href="#DejaVuSans-65" x="254.248047"/>
       <use xlink:href="#DejaVuSans-6d" x="315.771484"/>
       <use xlink:href="#DejaVuSans-61" x="413.183594"/>
       <use xlink:href="#DejaVuSans-2e" x="474.462891"/>
       <use xlink:href="#DejaVuSans-6f" x="506.25"/>
       <use xlink:href="#DejaVuSans-72" x="567.431641"/>
       <use xlink:href="#DejaVuSans-67" x="606.794922"/>
       <use xlink:href="#DejaVuSans-2f" x="670.271484"/>
       <use xlink:href="#DejaVuSans-6e" x="703.962891"/>
       <use xlink:href="#DejaVuSans-75" x="767.341797"/>
       <use xlink:href="#DejaVuSans-6d" x="830.720703"/>
       <use xlink:href="#DejaVuSans-62" x="928.132812"/>
       <use xlink:href="#DejaVuSans-65" x="991.609375"/>
       <use xlink:href="#DejaVuSans-72" x="1053.132812"/>
       <use xlink:href="#DejaVuSans-4f" x="1094.246094"/>
       <use xlink:href="#DejaVuSans-66" x="1172.957031"/>
       <use xlink:href="#DejaVuSans-4c" x="1208.162109"/>
       <use xlink:href="#DejaVuSans-6f" x="1262.125"/>
       <use xlink:href="#DejaVuSans-61" x="1323.306641"/>
       <use xlink:href="#DejaVuSans-6e" x="1384.585938"/>
       <use xlink:href="#DejaVuSans-50" x="1447.964844"/>
       <use xlink:href="#DejaVuSans-61" x="1503.767578"/>
       <use xlink:href="#DejaVuSans-79" x="1565.046875"/>
       <use xlink:href="#DejaVuSans-6d" x="1624.226562"/>
       <use xlink:href="#DejaVuSans-65" x="1721.638672"/>
       <use xlink:href="#DejaVuSans-6e" x="1783.162109"/>
       <use xlink:href="#DejaVuSans-74" x="1846.541016"/>
       <use xlink:href="#DejaVuSans-73" x="1885.75"/>
       <use xlink:href="#DejaVuSans-3e" x="1937.849609"/>
      </g>
     </g>
    </g>
    <g id="ytick_10">
     <g id="line2d_4"/>
     <g id="text_4">
      <!-- &lt;schema.org/loanPaymentAmount&gt; -->
      <g transform="translate(131.742946 261.769946) scale(0.1 -0.1)">
       <defs>
        <path id="DejaVuSans-41" d="M 2188 4044 
L 1331 1722 
L 3047 1722 
L 2188 4044 
z
M 1831 4666 
L 2547 4666 
L 4325 0 
L 3669 0 
L 3244 1197 
L 1141 1197 
L 716 0 
L 50 0 
L 1831 4666 
z
" transform="scale(0.015625)"/>
       </defs>
       <use xlink:href="#DejaVuSans-3c"/>
       <use xlink:href="#DejaVuSans-73" x="83.789062"/>
       <use xlink:href="#DejaVuSans-63" x="135.888672"/>
       <use xlink:href="#DejaVuSans-68" x="190.869141"/>
       <use xlink:href="#DejaVuSans-65" x="254.248047"/>
       <use xlink:href="#DejaVuSans-6d" x="315.771484"/>
       <use xlink:href="#DejaVuSans-61" x="413.183594"/>
       <use xlink:href="#DejaVuSans-2e" x="474.462891"/>
       <use xlink:href="#DejaVuSans-6f" x="506.25"/>
       <use xlink:href="#DejaVuSans-72" x="567.431641"/>
       <use xlink:href="#DejaVuSans-67" x="606.794922"/>
       <use xlink:href="#DejaVuSans-2f" x="670.271484"/>
       <use xlink:href="#DejaVuSans-6c" x="703.962891"/>
       <use xlink:href="#DejaVuSans-6f" x="731.746094"/>
       <use xlink:href="#DejaVuSans-61" x="792.927734"/>
       <use xlink:href="#DejaVuSans-6e" x="854.207031"/>
       <use xlink:href="#DejaVuSans-50" x="917.585938"/>
       <use xlink:href="#DejaVuSans-61" x="973.388672"/>
       <use xlink:href="#DejaVuSans-79" x="1034.667969"/>
       <use xlink:href="#DejaVuSans-6d" x="1093.847656"/>
       <use xlink:href="#DejaVuSans-65" x="1191.259766"/>
       <use xlink:href="#DejaVuSans-6e" x="1252.783203"/>
       <use xlink:href="#DejaVuSans-74" x="1316.162109"/>
       <use xlink:href="#DejaVuSans-41" x="1355.371094"/>
       <use xlink:href="#DejaVuSans-6d" x="1423.779297"/>
       <use xlink:href="#DejaVuSans-6f" x="1521.191406"/>
       <use xlink:href="#DejaVuSans-75" x="1582.373047"/>
       <use xlink:href="#DejaVuSans-6e" x="1645.751953"/>
       <use xlink:href="#DejaVuSans-74" x="1709.130859"/>
       <use xlink:href="#DejaVuSans-3e" x="1748.339844"/>
      </g>
     </g>
    </g>
    <g id="ytick_11">
     <g id="line2d_5"/>
     <g id="text_5">
      <!-- &lt;schema.org/downPayment&gt; -->
      <g transform="translate(165.417946 239.016579) scale(0.1 -0.1)">
       <defs>
        <path id="DejaVuSans-64" d="M 2906 2969 
L 2906 4863 
L 3481 4863 
L 3481 0 
L 2906 0 
L 2906 525 
Q 2725 213 2448 61 
Q 2172 -91 1784 -91 
Q 1150 -91 751 415 
Q 353 922 353 1747 
Q 353 2572 751 3078 
Q 1150 3584 1784 3584 
Q 2172 3584 2448 3432 
Q 2725 3281 2906 2969 
z
M 947 1747 
Q 947 1113 1208 752 
Q 1469 391 1925 391 
Q 2381 391 2643 752 
Q 2906 1113 2906 1747 
Q 2906 2381 2643 2742 
Q 2381 3103 1925 3103 
Q 1469 3103 1208 2742 
Q 947 2381 947 1747 
z
" transform="scale(0.015625)"/>
        <path id="DejaVuSans-77" d="M 269 3500 
L 844 3500 
L 1563 769 
L 2278 3500 
L 2956 3500 
L 3675 769 
L 4391 3500 
L 4966 3500 
L 4050 0 
L 3372 0 
L 2619 2869 
L 1863 0 
L 1184 0 
L 269 3500 
z
" transform="scale(0.015625)"/>
       </defs>
       <use xlink:href="#DejaVuSans-3c"/>
       <use xlink:href="#DejaVuSans-73" x="83.789062"/>
       <use xlink:href="#DejaVuSans-63" x="135.888672"/>
       <use xlink:href="#DejaVuSans-68" x="190.869141"/>
       <use xlink:href="#DejaVuSans-65" x="254.248047"/>
       <use xlink:href="#DejaVuSans-6d" x="315.771484"/>
       <use xlink:href="#DejaVuSans-61" x="413.183594"/>
       <use xlink:href="#DejaVuSans-2e" x="474.462891"/>
       <use xlink:href="#DejaVuSans-6f" x="506.25"/>
       <use xlink:href="#DejaVuSans-72" x="567.431641"/>
       <use xlink:href="#DejaVuSans-67" x="606.794922"/>
       <use xlink:href="#DejaVuSans-2f" x="670.271484"/>
       <use xlink:href="#DejaVuSans-64" x="703.962891"/>
       <use xlink:href="#DejaVuSans-6f" x="767.439453"/>
       <use xlink:href="#DejaVuSans-77" x="828.621094"/>
       <use xlink:href="#DejaVuSans-6e" x="910.408203"/>
       <use xlink:href="#DejaVuSans-50" x="973.787109"/>
       <use xlink:href="#DejaVuSans-61" x="1029.589844"/>
       <use xlink:href="#DejaVuSans-79" x="1090.869141"/>
       <use xlink:href="#DejaVuSans-6d" x="1150.048828"/>
       <use xlink:href="#DejaVuSans-65" x="1247.460938"/>
       <use xlink:href="#DejaVuSans-6e" x="1308.984375"/>
       <use xlink:href="#DejaVuSans-74" x="1372.363281"/>
       <use xlink:href="#DejaVuSans-3e" x="1411.572266"/>
      </g>
     </g>
    </g>
    <g id="ytick_12">
     <g id="line2d_6"/>
     <g id="text_6">
      <!-- &lt;schema.org/name&gt; -->
      <g transform="translate(207.819508 216.263213) scale(0.1 -0.1)">
       <use xlink:href="#DejaVuSans-3c"/>
       <use xlink:href="#DejaVuSans-73" x="83.789062"/>
       <use xlink:href="#DejaVuSans-63" x="135.888672"/>
       <use xlink:href="#DejaVuSans-68" x="190.869141"/>
       <use xlink:href="#DejaVuSans-65" x="254.248047"/>
       <use xlink:href="#DejaVuSans-6d" x="315.771484"/>
       <use xlink:href="#DejaVuSans-61" x="413.183594"/>
       <use xlink:href="#DejaVuSans-2e" x="474.462891"/>
       <use xlink:href="#DejaVuSans-6f" x="506.25"/>
       <use xlink:href="#DejaVuSans-72" x="567.431641"/>
       <use xlink:href="#DejaVuSans-67" x="606.794922"/>
       <use xlink:href="#DejaVuSans-2f" x="670.271484"/>
       <use xlink:href="#DejaVuSans-6e" x="703.962891"/>
       <use xlink:href="#DejaVuSans-61" x="767.341797"/>
       <use xlink:href="#DejaVuSans-6d" x="828.621094"/>
       <use xlink:href="#DejaVuSans-65" x="926.033203"/>
       <use xlink:href="#DejaVuSans-3e" x="987.556641"/>
      </g>
     </g>
    </g>
   </g>
   <g id="LineCollection_1">
    <path d="M 330.680057 326.230827 
L 330.680057 235.217361 
" clip-path="url(#pc9aa0eeab3)" style="fill: none; stroke: #000000; stroke-width: 2"/>
    <path d="M 355.129279 326.230827 
L 355.129279 212.463994 
" clip-path="url(#pc9aa0eeab3)" style="fill: none; stroke: #000000; stroke-width: 2"/>
    <path d="M 379.578501 326.230827 
L 379.578501 280.724094 
" clip-path="url(#pc9aa0eeab3)" style="fill: none; stroke: #000000; stroke-width: 2"/>
    <path d="M 404.027723 326.230827 
L 404.027723 212.463994 
" clip-path="url(#pc9aa0eeab3)" style="fill: none; stroke: #000000; stroke-width: 2"/>
    <path d="M 428.476945 326.230827 
L 428.476945 257.970727 
" clip-path="url(#pc9aa0eeab3)" style="fill: none; stroke: #000000; stroke-width: 2"/>
    <path d="M 452.926167 326.230827 
L 452.926167 235.217361 
" clip-path="url(#pc9aa0eeab3)" style="fill: none; stroke: #000000; stroke-width: 2"/>
    <path d="M 477.375389 326.230827 
L 477.375389 235.217361 
" clip-path="url(#pc9aa0eeab3)" style="fill: none; stroke: #000000; stroke-width: 2"/>
   </g>
   <g id="PathCollection_1">
    <defs>
     <path id="C0_0_08b3342ee3" d="M 0 5.6 
C 1.485137 5.6 2.909647 5.009949 3.959798 3.959798 
C 5.009949 2.909647 5.6 1.485137 5.6 -0 
C 5.6 -1.485137 5.009949 -2.909647 3.959798 -3.959798 
C 2.909647 -5.009949 1.485137 -5.6 0 -5.6 
C -1.485137 -5.6 -2.909647 -5.009949 -3.959798 -3.959798 
C -5.009949 -2.909647 -5.6 -1.485137 -5.6 0 
C -5.6 1.485137 -5.009949 2.909647 -3.959798 3.959798 
C -2.909647 5.009949 -1.485137 5.6 0 5.6 
z
"/>
    </defs>
    <g clip-path="url(#pc9aa0eeab3)">
     <use xlink:href="#C0_0_08b3342ee3" x="330.680057" y="326.230827" style="stroke: #000000"/>
    </g>
    <g clip-path="url(#pc9aa0eeab3)">
     <use xlink:href="#C0_0_08b3342ee3" x="330.680057" y="303.477461" style="fill-opacity: 0.180392"/>
    </g>
    <g clip-path="url(#pc9aa0eeab3)">
     <use xlink:href="#C0_0_08b3342ee3" x="330.680057" y="280.724094" style="fill-opacity: 0.180392"/>
    </g>
    <g clip-path="url(#pc9aa0eeab3)">
     <use xlink:href="#C0_0_08b3342ee3" x="330.680057" y="257.970727" style="fill-opacity: 0.180392"/>
    </g>
    <g clip-path="url(#pc9aa0eeab3)">
     <use xlink:href="#C0_0_08b3342ee3" x="330.680057" y="235.217361" style="stroke: #000000"/>
    </g>
    <g clip-path="url(#pc9aa0eeab3)">
     <use xlink:href="#C0_0_08b3342ee3" x="330.680057" y="212.463994" style="fill-opacity: 0.180392"/>
    </g>
    <g clip-path="url(#pc9aa0eeab3)">
     <use xlink:href="#C0_0_08b3342ee3" x="355.129279" y="326.230827" style="stroke: #000000"/>
    </g>
    <g clip-path="url(#pc9aa0eeab3)">
     <use xlink:href="#C0_0_08b3342ee3" x="355.129279" y="303.477461" style="fill-opacity: 0.180392"/>
    </g>
    <g clip-path="url(#pc9aa0eeab3)">
     <use xlink:href="#C0_0_08b3342ee3" x="355.129279" y="280.724094" style="fill-opacity: 0.180392"/>
    </g>
    <g clip-path="url(#pc9aa0eeab3)">
     <use xlink:href="#C0_0_08b3342ee3" x="355.129279" y="257.970727" style="fill-opacity: 0.180392"/>
    </g>
    <g clip-path="url(#pc9aa0eeab3)">
     <use xlink:href="#C0_0_08b3342ee3" x="355.129279" y="235.217361" style="fill-opacity: 0.180392"/>
    </g>
    <g clip-path="url(#pc9aa0eeab3)">
     <use xlink:href="#C0_0_08b3342ee3" x="355.129279" y="212.463994" style="stroke: #000000"/>
    </g>
    <g clip-path="url(#pc9aa0eeab3)">
     <use xlink:href="#C0_0_08b3342ee3" x="379.578501" y="326.230827" style="stroke: #000000"/>
    </g>
    <g clip-path="url(#pc9aa0eeab3)">
     <use xlink:href="#C0_0_08b3342ee3" x="379.578501" y="303.477461" style="stroke: #000000"/>
    </g>
    <g clip-path="url(#pc9aa0eeab3)">
     <use xlink:href="#C0_0_08b3342ee3" x="379.578501" y="280.724094" style="stroke: #000000"/>
    </g>
    <g clip-path="url(#pc9aa0eeab3)">
     <use xlink:href="#C0_0_08b3342ee3" x="379.578501" y="257.970727" style="fill-opacity: 0.180392"/>
    </g>
    <g clip-path="url(#pc9aa0eeab3)">
     <use xlink:href="#C0_0_08b3342ee3" x="379.578501" y="235.217361" style="fill-opacity: 0.180392"/>
    </g>
    <g clip-path="url(#pc9aa0eeab3)">
     <use xlink:href="#C0_0_08b3342ee3" x="379.578501" y="212.463994" style="fill-opacity: 0.180392"/>
    </g>
    <g clip-path="url(#pc9aa0eeab3)">
     <use xlink:href="#C0_0_08b3342ee3" x="404.027723" y="326.230827" style="stroke: #000000"/>
    </g>
    <g clip-path="url(#pc9aa0eeab3)">
     <use xlink:href="#C0_0_08b3342ee3" x="404.027723" y="303.477461" style="fill-opacity: 0.180392"/>
    </g>
    <g clip-path="url(#pc9aa0eeab3)">
     <use xlink:href="#C0_0_08b3342ee3" x="404.027723" y="280.724094" style="fill-opacity: 0.180392"/>
    </g>
    <g clip-path="url(#pc9aa0eeab3)">
     <use xlink:href="#C0_0_08b3342ee3" x="404.027723" y="257.970727" style="fill-opacity: 0.180392"/>
    </g>
    <g clip-path="url(#pc9aa0eeab3)">
     <use xlink:href="#C0_0_08b3342ee3" x="404.027723" y="235.217361" style="stroke: #000000"/>
    </g>
    <g clip-path="url(#pc9aa0eeab3)">
     <use xlink:href="#C0_0_08b3342ee3" x="404.027723" y="212.463994" style="stroke: #000000"/>
    </g>
    <g clip-path="url(#pc9aa0eeab3)">
     <use xlink:href="#C0_0_08b3342ee3" x="428.476945" y="326.230827" style="stroke: #000000"/>
    </g>
    <g clip-path="url(#pc9aa0eeab3)">
     <use xlink:href="#C0_0_08b3342ee3" x="428.476945" y="303.477461" style="stroke: #000000"/>
    </g>
    <g clip-path="url(#pc9aa0eeab3)">
     <use xlink:href="#C0_0_08b3342ee3" x="428.476945" y="280.724094" style="stroke: #000000"/>
    </g>
    <g clip-path="url(#pc9aa0eeab3)">
     <use xlink:href="#C0_0_08b3342ee3" x="428.476945" y="257.970727" style="stroke: #000000"/>
    </g>
    <g clip-path="url(#pc9aa0eeab3)">
     <use xlink:href="#C0_0_08b3342ee3" x="428.476945" y="235.217361" style="fill-opacity: 0.180392"/>
    </g>
    <g clip-path="url(#pc9aa0eeab3)">
     <use xlink:href="#C0_0_08b3342ee3" x="428.476945" y="212.463994" style="fill-opacity: 0.180392"/>
    </g>
    <g clip-path="url(#pc9aa0eeab3)">
     <use xlink:href="#C0_0_08b3342ee3" x="452.926167" y="326.230827" style="stroke: #000000"/>
    </g>
    <g clip-path="url(#pc9aa0eeab3)">
     <use xlink:href="#C0_0_08b3342ee3" x="452.926167" y="303.477461" style="stroke: #000000"/>
    </g>
    <g clip-path="url(#pc9aa0eeab3)">
     <use xlink:href="#C0_0_08b3342ee3" x="452.926167" y="280.724094" style="stroke: #000000"/>
    </g>
    <g clip-path="url(#pc9aa0eeab3)">
     <use xlink:href="#C0_0_08b3342ee3" x="452.926167" y="257.970727" style="fill-opacity: 0.180392"/>
    </g>
    <g clip-path="url(#pc9aa0eeab3)">
     <use xlink:href="#C0_0_08b3342ee3" x="452.926167" y="235.217361" style="stroke: #000000"/>
    </g>
    <g clip-path="url(#pc9aa0eeab3)">
     <use xlink:href="#C0_0_08b3342ee3" x="452.926167" y="212.463994" style="fill-opacity: 0.180392"/>
    </g>
    <g clip-path="url(#pc9aa0eeab3)">
     <use xlink:href="#C0_0_08b3342ee3" x="477.375389" y="326.230827" style="stroke: #000000"/>
    </g>
    <g clip-path="url(#pc9aa0eeab3)">
     <use xlink:href="#C0_0_08b3342ee3" x="477.375389" y="303.477461" style="stroke: #000000"/>
    </g>
    <g clip-path="url(#pc9aa0eeab3)">
     <use xlink:href="#C0_0_08b3342ee3" x="477.375389" y="280.724094" style="stroke: #000000"/>
    </g>
    <g clip-path="url(#pc9aa0eeab3)">
     <use xlink:href="#C0_0_08b3342ee3" x="477.375389" y="257.970727" style="stroke: #000000"/>
    </g>
    <g clip-path="url(#pc9aa0eeab3)">
     <use xlink:href="#C0_0_08b3342ee3" x="477.375389" y="235.217361" style="stroke: #000000"/>
    </g>
    <g clip-path="url(#pc9aa0eeab3)">
     <use xlink:href="#C0_0_08b3342ee3" x="477.375389" y="212.463994" style="fill-opacity: 0.180392"/>
    </g>
   </g>
  </g>
  <g id="axes_3">
   <g id="patch_5">
    <path d="M 113.916832 331.919169 
L 68 331.919169 
L 68 320.542486 
L 113.916832 320.542486 
z
" clip-path="url(#p4793acf7b9)"/>
   </g>
   <g id="patch_6">
    <path d="M 113.916832 309.165802 
L 87.244496 309.165802 
L 87.244496 297.789119 
L 113.916832 297.789119 
z
" clip-path="url(#p4793acf7b9)"/>
   </g>
   <g id="patch_7">
    <path d="M 113.916832 286.412436 
L 87.244496 286.412436 
L 87.244496 275.035752 
L 113.916832 275.035752 
z
" clip-path="url(#p4793acf7b9)"/>
   </g>
   <g id="patch_8">
    <path d="M 113.916832 263.659069 
L 87.983286 263.659069 
L 87.983286 252.282386 
L 113.916832 252.282386 
z
" clip-path="url(#p4793acf7b9)"/>
   </g>
   <g id="patch_9">
    <path d="M 113.916832 240.905702 
L 89.892161 240.905702 
L 89.892161 229.529019 
L 113.916832 229.529019 
z
" clip-path="url(#p4793acf7b9)"/>
   </g>
   <g id="patch_10">
    <path d="M 113.916832 218.152336 
L 95.487002 218.152336 
L 95.487002 206.775652 
L 113.916832 206.775652 
z
" clip-path="url(#p4793acf7b9)"/>
   </g>
   <g id="matplotlib.axis_4">
    <g id="xtick_1">
     <g id="line2d_7">
      <path d="M 113.916832 341.76 
L 113.916832 200.347826 
" clip-path="url(#p4793acf7b9)" style="fill: none; stroke: #b0b0b0; stroke-width: 0.8; stroke-linecap: square"/>
     </g>
     <g id="line2d_8">
      <defs>
       <path id="mcecaa7ed58" d="M 0 0 
L 0 3.5 
" style="stroke: #000000; stroke-width: 0.8"/>
      </defs>
      <g>
       <use xlink:href="#mcecaa7ed58" x="113.916832" y="341.76" style="stroke: #000000; stroke-width: 0.8"/>
      </g>
     </g>
     <g id="text_7">
      <!-- 0 -->
      <g transform="translate(110.735582 356.358437) scale(0.1 -0.1)">
       <defs>
        <path id="DejaVuSans-30" d="M 2034 4250 
Q 1547 4250 1301 3770 
Q 1056 3291 1056 2328 
Q 1056 1369 1301 889 
Q 1547 409 2034 409 
Q 2525 409 2770 889 
Q 3016 1369 3016 2328 
Q 3016 3291 2770 3770 
Q 2525 4250 2034 4250 
z
M 2034 4750 
Q 2819 4750 3233 4129 
Q 3647 3509 3647 2328 
Q 3647 1150 3233 529 
Q 2819 -91 2034 -91 
Q 1250 -91 836 529 
Q 422 1150 422 2328 
Q 422 3509 836 4129 
Q 1250 4750 2034 4750 
z
" transform="scale(0.015625)"/>
       </defs>
       <use xlink:href="#DejaVuSans-30"/>
      </g>
     </g>
    </g>
    <g id="xtick_2">
     <g id="line2d_9">
      <path d="M 73.982207 341.76 
L 73.982207 200.347826 
" clip-path="url(#p4793acf7b9)" style="fill: none; stroke: #b0b0b0; stroke-width: 0.8; stroke-linecap: square"/>
     </g>
     <g id="line2d_10">
      <g>
       <use xlink:href="#mcecaa7ed58" x="73.982207" y="341.76" style="stroke: #000000; stroke-width: 0.8"/>
      </g>
     </g>
     <g id="text_8">
      <!-- 10000 -->
      <g transform="translate(58.075957 356.358437) scale(0.1 -0.1)">
       <defs>
        <path id="DejaVuSans-31" d="M 794 531 
L 1825 531 
L 1825 4091 
L 703 3866 
L 703 4441 
L 1819 4666 
L 2450 4666 
L 2450 531 
L 3481 531 
L 3481 0 
L 794 0 
L 794 531 
z
" transform="scale(0.015625)"/>
       </defs>
       <use xlink:href="#DejaVuSans-31"/>
       <use xlink:href="#DejaVuSans-30" x="63.623047"/>
       <use xlink:href="#DejaVuSans-30" x="127.246094"/>
       <use xlink:href="#DejaVuSans-30" x="190.869141"/>
       <use xlink:href="#DejaVuSans-30" x="254.492188"/>
      </g>
     </g>
    </g>
   </g>
   <g id="patch_11">
    <path d="M 68 341.76 
L 113.916832 341.76 
" style="fill: none; stroke: #000000; stroke-width: 0.8; stroke-linejoin: miter; stroke-linecap: square"/>
   </g>
  </g>
  <g id="axes_4">
   <g id="patch_12">
    <path d="M 318.455446 187.492174 
L 489.6 187.492174 
L 489.6 46.08 
L 318.455446 46.08 
z
" style="fill: #ffffff"/>
   </g>
   <g id="matplotlib.axis_5">
    <g id="ytick_13">
     <g id="line2d_11">
      <path d="M 318.455446 187.492174 
L 489.6 187.492174 
" clip-path="url(#p7dcc38de1e)" style="fill: none; stroke: #b0b0b0; stroke-width: 0.8; stroke-linecap: square"/>
     </g>
     <g id="line2d_12">
      <defs>
       <path id="m05f362954d" d="M 0 0 
L -3.5 0 
" style="stroke: #000000; stroke-width: 0.8"/>
      </defs>
      <g>
       <use xlink:href="#m05f362954d" x="318.455446" y="187.492174" style="stroke: #000000; stroke-width: 0.8"/>
      </g>
     </g>
     <g id="text_9">
      <!-- 0 -->
      <g transform="translate(305.092946 191.291393) scale(0.1 -0.1)">
       <use xlink:href="#DejaVuSans-30"/>
      </g>
     </g>
    </g>
    <g id="ytick_14">
     <g id="line2d_13">
      <path d="M 318.455446 154.131198 
L 489.6 154.131198 
" clip-path="url(#p7dcc38de1e)" style="fill: none; stroke: #b0b0b0; stroke-width: 0.8; stroke-linecap: square"/>
     </g>
     <g id="line2d_14">
      <g>
       <use xlink:href="#m05f362954d" x="318.455446" y="154.131198" style="stroke: #000000; stroke-width: 0.8"/>
      </g>
     </g>
     <g id="text_10">
      <!-- 1000 -->
      <g transform="translate(286.005446 157.930416) scale(0.1 -0.1)">
       <use xlink:href="#DejaVuSans-31"/>
       <use xlink:href="#DejaVuSans-30" x="63.623047"/>
       <use xlink:href="#DejaVuSans-30" x="127.246094"/>
       <use xlink:href="#DejaVuSans-30" x="190.869141"/>
      </g>
     </g>
    </g>
    <g id="ytick_15">
     <g id="line2d_15">
      <path d="M 318.455446 120.770222 
L 489.6 120.770222 
" clip-path="url(#p7dcc38de1e)" style="fill: none; stroke: #b0b0b0; stroke-width: 0.8; stroke-linecap: square"/>
     </g>
     <g id="line2d_16">
      <g>
       <use xlink:href="#m05f362954d" x="318.455446" y="120.770222" style="stroke: #000000; stroke-width: 0.8"/>
      </g>
     </g>
     <g id="text_11">
      <!-- 2000 -->
      <g transform="translate(286.005446 124.56944) scale(0.1 -0.1)">
       <defs>
        <path id="DejaVuSans-32" d="M 1228 531 
L 3431 531 
L 3431 0 
L 469 0 
L 469 531 
Q 828 903 1448 1529 
Q 2069 2156 2228 2338 
Q 2531 2678 2651 2914 
Q 2772 3150 2772 3378 
Q 2772 3750 2511 3984 
Q 2250 4219 1831 4219 
Q 1534 4219 1204 4116 
Q 875 4013 500 3803 
L 500 4441 
Q 881 4594 1212 4672 
Q 1544 4750 1819 4750 
Q 2544 4750 2975 4387 
Q 3406 4025 3406 3419 
Q 3406 3131 3298 2873 
Q 3191 2616 2906 2266 
Q 2828 2175 2409 1742 
Q 1991 1309 1228 531 
z
" transform="scale(0.015625)"/>
       </defs>
       <use xlink:href="#DejaVuSans-32"/>
       <use xlink:href="#DejaVuSans-30" x="63.623047"/>
       <use xlink:href="#DejaVuSans-30" x="127.246094"/>
       <use xlink:href="#DejaVuSans-30" x="190.869141"/>
      </g>
     </g>
    </g>
    <g id="ytick_16">
     <g id="line2d_17">
      <path d="M 318.455446 87.409245 
L 489.6 87.409245 
" clip-path="url(#p7dcc38de1e)" style="fill: none; stroke: #b0b0b0; stroke-width: 0.8; stroke-linecap: square"/>
     </g>
     <g id="line2d_18">
      <g>
       <use xlink:href="#m05f362954d" x="318.455446" y="87.409245" style="stroke: #000000; stroke-width: 0.8"/>
      </g>
     </g>
     <g id="text_12">
      <!-- 3000 -->
      <g transform="translate(286.005446 91.208464) scale(0.1 -0.1)">
       <defs>
        <path id="DejaVuSans-33" d="M 2597 2516 
Q 3050 2419 3304 2112 
Q 3559 1806 3559 1356 
Q 3559 666 3084 287 
Q 2609 -91 1734 -91 
Q 1441 -91 1130 -33 
Q 819 25 488 141 
L 488 750 
Q 750 597 1062 519 
Q 1375 441 1716 441 
Q 2309 441 2620 675 
Q 2931 909 2931 1356 
Q 2931 1769 2642 2001 
Q 2353 2234 1838 2234 
L 1294 2234 
L 1294 2753 
L 1863 2753 
Q 2328 2753 2575 2939 
Q 2822 3125 2822 3475 
Q 2822 3834 2567 4026 
Q 2313 4219 1838 4219 
Q 1578 4219 1281 4162 
Q 984 4106 628 3988 
L 628 4550 
Q 988 4650 1302 4700 
Q 1616 4750 1894 4750 
Q 2613 4750 3031 4423 
Q 3450 4097 3450 3541 
Q 3450 3153 3228 2886 
Q 3006 2619 2597 2516 
z
" transform="scale(0.015625)"/>
       </defs>
       <use xlink:href="#DejaVuSans-33"/>
       <use xlink:href="#DejaVuSans-30" x="63.623047"/>
       <use xlink:href="#DejaVuSans-30" x="127.246094"/>
       <use xlink:href="#DejaVuSans-30" x="190.869141"/>
      </g>
     </g>
    </g>
    <g id="ytick_17">
     <g id="line2d_19">
      <path d="M 318.455446 54.048269 
L 489.6 54.048269 
" clip-path="url(#p7dcc38de1e)" style="fill: none; stroke: #b0b0b0; stroke-width: 0.8; stroke-linecap: square"/>
     </g>
     <g id="line2d_20">
      <g>
       <use xlink:href="#m05f362954d" x="318.455446" y="54.048269" style="stroke: #000000; stroke-width: 0.8"/>
      </g>
     </g>
     <g id="text_13">
      <!-- 4000 -->
      <g transform="translate(286.005446 57.847488) scale(0.1 -0.1)">
       <defs>
        <path id="DejaVuSans-34" d="M 2419 4116 
L 825 1625 
L 2419 1625 
L 2419 4116 
z
M 2253 4666 
L 3047 4666 
L 3047 1625 
L 3713 1625 
L 3713 1100 
L 3047 1100 
L 3047 0 
L 2419 0 
L 2419 1100 
L 313 1100 
L 313 1709 
L 2253 4666 
z
" transform="scale(0.015625)"/>
       </defs>
       <use xlink:href="#DejaVuSans-34"/>
       <use xlink:href="#DejaVuSans-30" x="63.623047"/>
       <use xlink:href="#DejaVuSans-30" x="127.246094"/>
       <use xlink:href="#DejaVuSans-30" x="190.869141"/>
      </g>
     </g>
    </g>
    <g id="text_14">
     <!-- Intersection size -->
     <g transform="translate(279.925758 157.813431) rotate(-90) scale(0.1 -0.1)">
      <defs>
       <path id="DejaVuSans-49" d="M 628 4666 
L 1259 4666 
L 1259 0 
L 628 0 
L 628 4666 
z
" transform="scale(0.015625)"/>
       <path id="DejaVuSans-20" transform="scale(0.015625)"/>
       <path id="DejaVuSans-7a" d="M 353 3500 
L 3084 3500 
L 3084 2975 
L 922 459 
L 3084 459 
L 3084 0 
L 275 0 
L 275 525 
L 2438 3041 
L 353 3041 
L 353 3500 
z
" transform="scale(0.015625)"/>
      </defs>
      <use xlink:href="#DejaVuSans-49"/>
      <use xlink:href="#DejaVuSans-6e" x="29.492188"/>
      <use xlink:href="#DejaVuSans-74" x="92.871094"/>
      <use xlink:href="#DejaVuSans-65" x="132.080078"/>
      <use xlink:href="#DejaVuSans-72" x="193.603516"/>
      <use xlink:href="#DejaVuSans-73" x="234.716797"/>
      <use xlink:href="#DejaVuSans-65" x="286.816406"/>
      <use xlink:href="#DejaVuSans-63" x="348.339844"/>
      <use xlink:href="#DejaVuSans-74" x="403.320312"/>
      <use xlink:href="#DejaVuSans-69" x="442.529297"/>
      <use xlink:href="#DejaVuSans-6f" x="470.3125"/>
      <use xlink:href="#DejaVuSans-6e" x="531.494141"/>
      <use xlink:href="#DejaVuSans-20" x="594.873047"/>
      <use xlink:href="#DejaVuSans-73" x="626.660156"/>
      <use xlink:href="#DejaVuSans-69" x="678.759766"/>
      <use xlink:href="#DejaVuSans-7a" x="706.542969"/>
      <use xlink:href="#DejaVuSans-65" x="759.033203"/>
     </g>
    </g>
   </g>
   <g id="patch_13">
    <path d="M 318.455446 187.492174 
L 318.455446 46.08 
" style="fill: none; stroke: #000000; stroke-width: 0.8; stroke-linejoin: miter; stroke-linecap: square"/>
   </g>
   <g id="patch_14">
    <path d="M 324.567751 187.492174 
L 336.792362 187.492174 
L 336.792362 180.686535 
L 324.567751 180.686535 
z
" clip-path="url(#p7dcc38de1e)" style="stroke: #000000; stroke-linejoin: miter"/>
   </g>
   <g id="patch_15">
    <path d="M 349.016973 187.492174 
L 361.241584 187.492174 
L 361.241584 140.286393 
L 349.016973 140.286393 
z
" clip-path="url(#p7dcc38de1e)" style="stroke: #000000; stroke-linejoin: miter"/>
   </g>
   <g id="patch_16">
    <path d="M 373.466195 187.492174 
L 385.690806 187.492174 
L 385.690806 186.491345 
L 373.466195 186.491345 
z
" clip-path="url(#p7dcc38de1e)" style="stroke: #000000; stroke-linejoin: miter"/>
   </g>
   <g id="patch_17">
    <path d="M 397.915417 187.492174 
L 410.140028 187.492174 
L 410.140028 80.73705 
L 397.915417 80.73705 
z
" clip-path="url(#p7dcc38de1e)" style="stroke: #000000; stroke-linejoin: miter"/>
   </g>
   <g id="patch_18">
    <path d="M 422.364639 187.492174 
L 434.58925 187.492174 
L 434.58925 52.813913 
L 422.364639 52.813913 
z
" clip-path="url(#p7dcc38de1e)" style="stroke: #000000; stroke-linejoin: miter"/>
   </g>
   <g id="patch_19">
    <path d="M 446.813861 187.492174 
L 459.038472 187.492174 
L 459.038472 182.321223 
L 446.813861 182.321223 
z
" clip-path="url(#p7dcc38de1e)" style="stroke: #000000; stroke-linejoin: miter"/>
   </g>
   <g id="patch_20">
    <path d="M 471.263083 187.492174 
L 483.487694 187.492174 
L 483.487694 105.524255 
L 471.263083 105.524255 
z
" clip-path="url(#p7dcc38de1e)" style="stroke: #000000; stroke-linejoin: miter"/>
   </g>
  </g>
 </g>
 <defs>
  <clipPath id="p149e1aad30">
   <rect x="68" y="200.347826" width="421.6" height="141.412174"/>
  </clipPath>
  <clipPath id="pc9aa0eeab3">
   <rect x="318.455446" y="200.347826" width="171.144554" height="141.412174"/>
  </clipPath>
  <clipPath id="p4793acf7b9">
   <rect x="68" y="200.347826" width="45.916832" height="141.412174"/>
  </clipPath>
  <clipPath id="p7dcc38de1e">
   <rect x="318.455446" y="46.08" width="171.144554" height="141.412174"/>
  </clipPath>
 </defs>
</svg>
